<svg width="30" height="30" viewBox="0 0 30 30" fill="none" xmlns="http://www.w3.org/2000/svg">
<rect width="29.0627" height="29.0627" rx="5" fill="#445BAD"/>
<path d="M16.9001 8.14001L15.2966 6.94461L16.9001 8.14001ZM17.2419 7.68145L18.8454 8.87685L17.2419 7.68145ZM17.5838 7.22288L15.9804 6.02748L17.5838 7.22288ZM20.3153 5.61282L20.9729 7.50163L20.3153 5.61282ZM22.7297 6.18941L21.6198 7.85319L22.7297 6.18941ZM23.2043 6.50601L24.3142 4.84222L23.2043 6.50601ZM24.2079 8.2442L26.2026 8.09801L24.2079 8.2442ZM24.2504 8.82304L22.2557 8.96923L24.2504 8.82304ZM24.2928 9.40188L22.2981 9.54807L24.2928 9.40188ZM24.0541 11.6053L22.137 11.0354L24.0541 11.6053ZM23.8887 12.1616L25.8058 12.7316L23.8887 12.1616ZM23.7233 12.7179L21.8063 12.1479L23.7233 12.7179ZM22.9071 14.8064L21.1118 13.925L22.9071 14.8064ZM22.652 15.326L24.4474 16.2073L22.652 15.326ZM22.397 15.8456L24.1923 16.7269L22.397 15.8456ZM21.2633 18.4352L23.1178 19.1842L21.2633 18.4352ZM21.0462 18.9728L19.1917 18.2238L21.0462 18.9728ZM20.1061 21.0118L21.8797 21.9359L20.1061 21.0118ZM19.8388 21.5246L18.0652 20.6005L19.8388 21.5246ZM19.5716 22.0375L21.3453 22.9617L19.5716 22.0375ZM18.2525 23.3273L17.5623 21.4502L18.2525 23.3273ZM17.4278 23.6305L18.1179 25.5077L17.4278 23.6305ZM15.671 23.333L16.7234 21.6323L15.671 23.333ZM14.6857 22.7233L13.6333 24.424L14.6857 22.7233ZM12.8025 21.502L13.9262 19.8475L12.8025 21.502ZM12.3251 21.1778L11.2014 22.8322L12.3251 21.1778ZM10.0422 19.5295L8.80188 21.0984L10.0422 19.5295ZM7.13309 16.8579L5.64073 18.1894L7.13309 16.8579ZM5.46981 14.6365L3.72498 15.614L5.46981 14.6365ZM4.91565 13.6474L3.17082 14.6249L4.91565 13.6474ZM4.64019 11.6469L6.57946 12.136L4.64019 11.6469ZM4.91055 10.575L2.97128 10.0858L4.91055 10.575ZM7.22623 8.61862L6.41146 6.7921L7.22623 8.61862ZM9.84158 8.71327L10.4858 6.81987L9.84158 8.71327ZM10.3869 8.89883L9.74271 10.7922L10.3869 8.89883ZM12.3985 9.83202L11.368 11.546L12.3985 9.83202ZM12.8895 10.1272L13.92 8.41316L12.8895 10.1272ZM14.7827 11.4338L16.1794 10.0023L14.7827 11.4338ZM15.0141 11.6596L13.6174 13.0911L15.0141 11.6596ZM15.2456 11.8855L16.6423 10.454L15.2456 11.8855ZM15.6673 12.3417L14.589 10.6572L15.6673 12.3417ZM15.653 12.3508L14.5748 10.6664L15.653 12.3508ZM15.6388 12.3599L16.717 14.0444L15.6388 12.3599ZM15.8174 11.273L13.8515 10.9057L15.8174 11.273ZM15.9238 10.7039L17.8897 11.0712L17.9961 10.5021L16.0301 10.1348L14.0641 9.76756L13.9578 10.3366L15.9238 10.7039ZM16.0301 10.1348L17.9961 10.5021C18.0783 10.062 18.2458 9.68104 18.5035 9.33541L16.9001 8.14001L15.2966 6.94461C14.6695 7.78586 14.257 8.7348 14.0641 9.76756L16.0301 10.1348ZM16.9001 8.14001L18.5035 9.33541L18.8454 8.87685L17.2419 7.68145L15.6385 6.48605L15.2966 6.94461L16.9001 8.14001ZM17.2419 7.68145L18.8454 8.87685L19.1873 8.41829L17.5838 7.22288L15.9804 6.02748L15.6385 6.48605L17.2419 7.68145ZM17.5838 7.22288L19.1873 8.41829C19.3983 8.13526 19.6337 7.96786 19.9235 7.86696L19.2659 5.97815L18.6084 4.08934C17.5402 4.46121 16.6542 5.12364 15.9804 6.02748L17.5838 7.22288ZM19.2659 5.97815L19.9235 7.86696L20.4482 7.68429L19.7906 5.79548L19.1331 3.90668L18.6084 4.08934L19.2659 5.97815ZM19.7906 5.79548L20.4482 7.68429L20.9729 7.50163L20.3153 5.61282L19.6577 3.72401L19.1331 3.90668L19.7906 5.79548ZM20.3153 5.61282L20.9729 7.50163C21.0132 7.4876 21.0358 7.48428 21.0429 7.48347C21.0493 7.48274 21.0483 7.48341 21.0438 7.4828C21.0394 7.48221 21.0425 7.48187 21.0557 7.48706C21.0697 7.49257 21.0996 7.50614 21.1452 7.5366L22.2551 5.87281L23.365 4.20903C22.2459 3.46251 20.947 3.27515 19.6577 3.72401L20.3153 5.61282ZM22.2551 5.87281L21.1452 7.5366L21.6198 7.85319L22.7297 6.18941L23.8396 4.52562L23.365 4.20903L22.2551 5.87281ZM22.7297 6.18941L21.6198 7.85319L22.0944 8.16979L23.2043 6.50601L24.3142 4.84222L23.8396 4.52562L22.7297 6.18941ZM23.2043 6.50601L22.0944 8.16979C22.1362 8.19769 22.1587 8.21862 22.1691 8.22956C22.1791 8.23997 22.1826 8.24568 22.1838 8.24791C22.1852 8.25022 22.1896 8.25823 22.1951 8.27684C22.2008 8.2962 22.209 8.33237 22.2133 8.3904L24.2079 8.2442L26.2026 8.09801C26.1035 6.74615 25.4519 5.60116 24.3142 4.84222L23.2043 6.50601ZM24.2079 8.2442L22.2133 8.3904L22.2557 8.96923L24.2504 8.82304L26.245 8.67685L26.2026 8.09801L24.2079 8.2442ZM24.2504 8.82304L22.2557 8.96923L22.2981 9.54807L24.2928 9.40188L26.2874 9.25568L26.245 8.67685L24.2504 8.82304ZM24.2928 9.40188L22.2981 9.54807C22.3353 10.0557 22.2821 10.5476 22.137 11.0354L24.0541 11.6053L25.9712 12.1753C26.2542 11.2233 26.36 10.2462 26.2874 9.25568L24.2928 9.40188ZM24.0541 11.6053L22.137 11.0354L21.9717 11.5916L23.8887 12.1616L25.8058 12.7316L25.9712 12.1753L24.0541 11.6053ZM23.8887 12.1616L21.9717 11.5916L21.8063 12.1479L23.7233 12.7179L25.6404 13.2878L25.8058 12.7316L23.8887 12.1616ZM23.7233 12.7179L21.8063 12.1479C21.624 12.7611 21.3926 13.353 21.1118 13.925L22.9071 14.8064L24.7025 15.6877C25.0819 14.9148 25.3946 14.1144 25.6404 13.2878L23.7233 12.7179ZM22.9071 14.8064L21.1118 13.925L20.8567 14.4446L22.652 15.326L24.4474 16.2073L24.7025 15.6877L22.9071 14.8064ZM22.652 15.326L20.8567 14.4446L20.6016 14.9642L22.397 15.8456L24.1923 16.7269L24.4474 16.2073L22.652 15.326ZM22.397 15.8456L20.6016 14.9642C20.2502 15.6801 19.9249 16.4084 19.6259 17.1488L21.4804 17.8977L23.3349 18.6466C23.5977 17.9958 23.8835 17.3559 24.1923 16.7269L22.397 15.8456ZM21.4804 17.8977L19.6259 17.1488L19.4088 17.6863L21.2633 18.4352L23.1178 19.1842L23.3349 18.6466L21.4804 17.8977ZM21.2633 18.4352L19.4088 17.6863L19.1917 18.2238L21.0462 18.9728L22.9007 19.7217L23.1178 19.1842L21.2633 18.4352ZM21.0462 18.9728L19.1917 18.2238C18.9348 18.8599 18.6484 19.4811 18.3324 20.0876L20.1061 21.0118L21.8797 21.9359C22.2554 21.215 22.5957 20.4769 22.9007 19.7217L21.0462 18.9728ZM20.1061 21.0118L18.3324 20.0876L18.0652 20.6005L19.8388 21.5246L21.6125 22.4488L21.8797 21.9359L20.1061 21.0118ZM19.8388 21.5246L18.0652 20.6005L17.7979 21.1133L19.5716 22.0375L21.3453 22.9617L21.6125 22.4488L19.8388 21.5246ZM19.5716 22.0375L17.7979 21.1133C17.7023 21.297 17.6244 21.3885 17.5842 21.4277C17.5495 21.4617 17.5431 21.4572 17.5623 21.4502L18.2525 23.3273L18.9426 25.2045C20.0753 24.788 20.8439 23.9239 21.3453 22.9617L19.5716 22.0375ZM18.2525 23.3273L17.5623 21.4502L17.15 21.6018L17.8401 23.4789L18.5302 25.3561L18.9426 25.2045L18.2525 23.3273ZM17.8401 23.4789L17.15 21.6018L16.7376 21.7534L17.4278 23.6305L18.1179 25.5077L18.5302 25.3561L17.8401 23.4789ZM17.4278 23.6305L16.7376 21.7534C16.7688 21.7419 16.806 21.7331 16.8451 21.7297C16.8837 21.7264 16.911 21.7294 16.9223 21.7314C16.9415 21.7346 16.8779 21.7279 16.7234 21.6323L15.671 23.333L14.6186 25.0337C15.599 25.6404 16.834 25.9797 18.1179 25.5077L17.4278 23.6305ZM15.671 23.333L16.7234 21.6323L16.2308 21.3274L15.1783 23.0281L14.1259 24.7289L14.6186 25.0337L15.671 23.333ZM15.1783 23.0281L16.2308 21.3274L15.7381 21.0226L14.6857 22.7233L13.6333 24.424L14.1259 24.7289L15.1783 23.0281ZM14.6857 22.7233L15.7381 21.0226C15.1245 20.6429 14.5206 20.2512 13.9262 19.8475L12.8025 21.502L11.6788 23.1565C12.3202 23.5921 12.9717 24.0146 13.6333 24.424L14.6857 22.7233ZM12.8025 21.502L13.9262 19.8475L13.4487 19.5233L12.3251 21.1778L11.2014 22.8322L11.6788 23.1565L12.8025 21.502ZM12.3251 21.1778L13.4487 19.5233L12.9713 19.199L11.8476 20.8535L10.7239 22.508L11.2014 22.8322L12.3251 21.1778ZM11.8476 20.8535L12.9713 19.199C12.3933 18.8064 11.8304 18.3936 11.2826 17.9605L10.0422 19.5295L8.80188 21.0984C9.42543 21.5914 10.0661 22.0612 10.7239 22.508L11.8476 20.8535ZM10.0422 19.5295L11.2826 17.9605L10.83 17.6027L9.58964 19.1717L8.3493 20.7406L8.80188 21.0984L10.0422 19.5295ZM9.58964 19.1717L10.83 17.6027L10.3774 17.2449L9.13706 18.8139L7.89671 20.3828L8.3493 20.7406L9.58964 19.1717ZM9.13706 18.8139L10.3774 17.2449C9.88207 16.8533 9.42601 16.4237 9.0081 15.9553L7.51574 17.2868L6.02337 18.6183C6.59583 19.2599 7.22065 19.8483 7.89671 20.3828L9.13706 18.8139ZM7.51574 17.2868L9.0081 15.9553L8.62545 15.5264L7.13309 16.8579L5.64073 18.1894L6.02337 18.6183L7.51574 17.2868ZM7.13309 16.8579L8.62545 15.5264L8.24281 15.0976L6.75045 16.429L5.25809 17.7605L5.64073 18.1894L7.13309 16.8579ZM6.75045 16.429L8.24281 15.0976C7.84304 14.6495 7.50118 14.1704 7.21464 13.6589L5.46981 14.6365L3.72498 15.614C4.15559 16.3826 4.66749 17.0986 5.25809 17.7605L6.75045 16.429ZM5.46981 14.6365L7.21464 13.6589L6.93756 13.1644L5.19273 14.1419L3.4479 15.1195L3.72498 15.614L5.46981 14.6365ZM5.19273 14.1419L6.93756 13.1644L6.66047 12.6698L4.91565 13.6474L3.17082 14.6249L3.4479 15.1195L5.19273 14.1419ZM4.91565 13.6474L6.66047 12.6698C6.54471 12.4632 6.53307 12.3199 6.57946 12.136L4.64019 11.6469L2.70092 11.1578C2.39744 12.3611 2.56944 13.5515 3.17082 14.6249L4.91565 13.6474ZM4.64019 11.6469L6.57946 12.136L6.71464 11.6L4.77537 11.1109L2.8361 10.6218L2.70092 11.1578L4.64019 11.6469ZM4.77537 11.1109L6.71464 11.6L6.84982 11.0641L4.91055 10.575L2.97128 10.0858L2.8361 10.6218L4.77537 11.1109ZM4.91055 10.575L6.84982 11.0641C6.86035 11.0223 6.87043 10.9999 6.87494 10.9909C6.87732 10.9862 6.87895 10.9836 6.87962 10.9826C6.88028 10.9816 6.8807 10.9811 6.88108 10.9807C6.88111 10.9806 6.88577 10.9749 6.90062 10.9641C6.9161 10.9529 6.94661 10.9333 6.99904 10.9099L6.18427 9.08341L5.3695 7.2569C4.15613 7.79816 3.3017 8.77578 2.97128 10.0858L4.91055 10.575ZM6.18427 9.08341L6.99904 10.9099L7.52002 10.6775L6.70525 8.85101L5.89048 7.0245L5.3695 7.2569L6.18427 9.08341ZM6.70525 8.85101L7.52002 10.6775L8.041 10.4451L7.22623 8.61862L6.41146 6.7921L5.89048 7.0245L6.70525 8.85101ZM7.22623 8.61862L8.041 10.4451C8.24969 10.352 8.41836 10.3416 8.65197 10.4211L9.29621 8.5277L9.94044 6.63431C8.76251 6.23351 7.5512 6.28369 6.41146 6.7921L7.22623 8.61862ZM9.29621 8.5277L8.65197 10.4211L9.19734 10.6067L9.84158 8.71327L10.4858 6.81987L9.94044 6.63431L9.29621 8.5277ZM9.84158 8.71327L9.19734 10.6067L9.74271 10.7922L10.3869 8.89883L11.0312 7.00543L10.4858 6.81987L9.84158 8.71327ZM10.3869 8.89883L9.74271 10.7922C10.3145 10.9868 10.8554 11.2379 11.368 11.546L12.3985 9.83202L13.4291 8.118C12.6711 7.66222 11.871 7.29118 11.0312 7.00543L10.3869 8.89883ZM12.3985 9.83202L11.368 11.546L11.8589 11.8412L12.8895 10.1272L13.92 8.41316L13.4291 8.118L12.3985 9.83202ZM12.8895 10.1272L11.8589 11.8412L12.3498 12.1364L13.3804 10.4224L14.4109 8.70833L13.92 8.41316L12.8895 10.1272ZM13.3804 10.4224L12.3498 12.1364C12.9373 12.4897 13.2506 12.7332 13.386 12.8653L14.7827 11.4338L16.1794 10.0023C15.7155 9.54971 15.094 9.119 14.4109 8.70833L13.3804 10.4224ZM14.7827 11.4338L13.386 12.8653L13.6174 13.0911L15.0141 11.6596L16.4109 10.2281L16.1794 10.0023L14.7827 11.4338ZM15.0141 11.6596L13.6174 13.0911L13.8489 13.317L15.2456 11.8855L16.6423 10.454L16.4109 10.2281L15.0141 11.6596ZM15.2456 11.8855L13.8489 13.317C13.9936 13.4581 14.0733 13.5398 14.1071 13.5763C14.1324 13.6037 14.0982 13.5694 14.0475 13.5014C14.0359 13.4858 13.935 13.354 13.8458 13.1576C13.8092 13.0771 13.6892 12.807 13.6712 12.4339C13.6502 11.9972 13.7852 11.1718 14.589 10.6572L15.6673 12.3417L16.7456 14.0261C17.5517 13.5101 17.6878 12.682 17.6666 12.2417C17.6485 11.8649 17.527 11.5901 17.4878 11.5037C17.3933 11.2956 17.282 11.1477 17.2552 11.1116C17.174 11.0026 17.0894 10.9098 17.0444 10.8612C16.9377 10.7457 16.7973 10.6052 16.6423 10.454L15.2456 11.8855ZM15.6673 12.3417L14.589 10.6572L14.5748 10.6664L15.653 12.3508L16.7313 14.0352L16.7456 14.0261L15.6673 12.3417ZM15.653 12.3508L14.5748 10.6664L14.5605 10.6755L15.6388 12.3599L16.717 14.0444L16.7313 14.0352L15.653 12.3508ZM15.6388 12.3599L14.5605 10.6755C14.7648 10.5447 15.1309 10.3642 15.6219 10.3603C16.1573 10.356 16.612 10.5633 16.9334 10.8367C17.4422 11.2697 17.5613 11.8118 17.5768 11.8739C17.6441 12.1437 17.6354 12.3667 17.6353 12.3723C17.6346 12.4334 17.6309 12.4789 17.6296 12.4945C17.6279 12.5146 17.6264 12.528 17.6259 12.5315C17.6254 12.536 17.6291 12.5067 17.6431 12.4215C17.6692 12.2628 17.7152 12.0057 17.7834 11.6403L15.8174 11.273L13.8515 10.9057C13.7821 11.2768 13.7295 11.5691 13.6961 11.7727C13.6803 11.8686 13.664 11.9736 13.6532 12.0658C13.6495 12.0966 13.6372 12.2002 13.6357 12.3214C13.6355 12.3372 13.6273 12.5675 13.6956 12.8416C13.7117 12.9059 13.8315 13.4495 14.3412 13.8832C14.6629 14.1569 15.1181 14.3645 15.654 14.3602C16.1456 14.3562 16.5122 14.1755 16.717 14.0444L15.6388 12.3599ZM15.8174 11.273L17.7834 11.6403L17.8897 11.0712L15.9238 10.7039L13.9578 10.3366L13.8515 10.9057L15.8174 11.273Z" fill="white"/>
</svg>
