<svg width="177" height="91" viewBox="0 0 177 91" fill="none" xmlns="http://www.w3.org/2000/svg">
<g clip-path="url(#clip0_9_333)">
<path d="M37.9385 2.37598C38.084 2.60903 38.2109 2.78648 38.29 3.05078C37.9807 3.36371 37.821 4.29211 37.5908 4.78906C38.4238 5.47706 38.3587 5.89558 37.8916 6.83301C38.2198 7.14021 38.5529 7.44454 38.8633 7.76953C38.874 8.48814 38.8681 8.6932 39.1357 9.39453C39.3689 10.0056 40.7207 10.9232 40.2568 11.4287C39.7293 11.4652 39.2282 10.8905 38.8896 10.5146C38.8273 10.9857 38.7769 11.3978 38.6299 11.8555C38.2447 13.0536 37.3671 14.283 37.1816 15.5146C37.1721 15.5778 38.5754 17.101 38.7246 17.3379C39.427 18.4538 39.775 19.5464 40.1289 20.7969C40.2061 21.0615 40.7182 21.7373 40.8066 22.1426C40.941 22.7576 41.0012 23.1852 40.9336 23.8164C40.826 24.8216 40.1635 25.6075 39.9209 26.5488C39.8512 26.8197 39.8716 27.5636 39.876 27.8838C42.0129 28.5122 41.2357 29.9954 41.4775 31.792C42.2091 32.6774 41.9721 33.1461 42.2168 34.1895C42.2401 34.288 42.4573 34.3549 42.5615 34.3975C43.7483 34.5696 45.318 35.7646 46.3486 36.2607C50.0648 39.0933 52.5346 42.6796 53.1709 47.3984C53.2632 48.1235 53.309 48.8541 53.3096 49.585C54.0528 49.5881 55.5621 49.4746 56.0117 49.9932C56.9299 51.0524 56.5097 54.9127 56.582 56.4795C58.1889 56.4562 59.9955 56.0972 60 58.2354C60.0106 63.6308 60.1054 69.0756 60.0234 74.4688L60.0176 74.7695C56.9945 74.2013 54.4964 73.6426 51.3633 73.7139C50.1663 73.741 49.1407 73.9495 48.0859 74.001C46.981 74.1644 46.2398 74.3381 45.1611 74.5811C42.955 75.2326 40.7948 76.0302 38.6943 76.9678C35.9504 78.1896 33.1371 79.7007 30.3535 80.7803C27.8296 81.7592 24.2853 82.8605 21.6309 83.334C13.933 84.707 6.28278 80.877 0.150391 76.5361C5.61809 78.904 7.52019 80.1179 13.7686 80.5654C13.8559 79.3619 13.8168 78.1578 13.8125 76.9512L13.8066 64.5654C13.8043 62.4267 13.7725 60.2891 13.8467 58.1523C13.9185 56.0934 15.8076 56.4438 17.3047 56.4707C17.3115 55.0978 17.2602 51.6505 17.4932 50.46C18.1834 49.3997 19.3072 49.5979 20.4443 49.5801C20.8563 43.6521 23.0536 39.2544 28.0645 35.9092C29.2836 35.1858 30.2902 34.7215 31.583 34.1543L31.6611 33.9512C31.6906 32.9145 31.6692 32.5658 32.3506 31.7646C32.3879 30.0884 31.8833 28.3988 33.874 27.874L33.8037 26.1123C32.5488 24.2162 32.4342 22.8247 33.6035 20.8271C33.9254 20.2773 33.7558 20.1836 33.8789 19.6865C34.0828 18.8637 34.8091 17.9599 35.1533 17.1436C35.2069 17.0171 36.1801 16.2387 36.3125 16.1318C36.0236 15.7694 35.0545 15.7398 34.6113 15.624C34.2138 15.5203 34.1639 16.1486 33.6875 16.0723C32.6942 14.8617 36.1296 12.4075 35.6914 11.6172C34.5365 11.6757 33.7739 11.4662 33.874 10.0576C33.964 8.79393 34.9879 7.99482 35.9043 7.25781C36.5285 5.4426 36.9417 4.03492 37.9385 2.37598ZM55.1777 60.8438C54.8027 60.8415 54.4223 60.8718 54.0479 60.8945C53.9476 60.999 53.684 61.2626 53.6807 61.4043C53.6256 64.087 53.678 66.7769 53.6387 69.4619C53.6351 69.7063 53.6402 70.2173 53.8057 70.3828C54.2644 70.8416 55.2416 70.7263 55.8438 70.6533C56.2871 70.228 56.2487 69.6914 56.2598 69.1152C56.2807 68.0251 56.4559 61.6013 56.043 61.1396C55.8381 60.911 55.4707 60.8455 55.1777 60.8438ZM17.9902 60.8223C17.739 60.9226 17.3897 61.1466 17.375 61.3662C17.2696 62.957 17.1669 69.1427 17.4336 70.333C17.8901 70.841 18.6921 70.7087 19.3252 70.6797C19.5367 70.5822 19.7478 70.5047 19.8359 70.2705C20.1116 69.5371 20.0817 61.9228 19.7559 61.252C19.652 61.0386 19.4145 60.9071 19.1924 60.8496C18.8387 60.7581 18.3544 60.806 17.9902 60.8223ZM25.5322 61.3555C25.5869 59.15 25.1077 59.3243 23.0879 59.3682C22.3145 59.4427 22.0479 59.786 22.0498 60.5771C22.0566 63.4502 22.0398 66.3653 22.0947 69.2334C22.1144 70.2631 23.6676 70.1391 24.4053 70.125C25.1383 70.0179 25.5022 69.7948 25.5283 69C25.6118 66.4636 25.4694 63.8883 25.5322 61.3555ZM51.1279 59.5576C50.5787 59.2665 49.7711 59.3574 49.168 59.3613C48.8154 59.4252 48.4744 59.4864 48.25 59.793C47.967 60.1808 48.041 68.4284 48.209 69.3291C48.2531 69.5654 48.2751 69.697 48.4785 69.8398C49.0405 70.2344 50.0205 70.0911 50.6816 70.084C50.9575 70.0247 51.2604 69.9015 51.4277 69.6582C51.6992 69.2618 51.7355 60.8237 51.5342 60.0264C51.478 59.8042 51.3303 59.6649 51.1279 59.5576ZM40.6768 59.3633L38.6143 59.4141C38.3877 59.6049 38.1667 59.7103 38.1689 60.0156C38.1775 61.2196 38.0265 68.9529 38.2773 69.5928C39.0236 70.2701 41.1891 70.0091 42.2793 69.9668C42.5195 69.7929 42.8136 69.5667 42.8145 69.2578C42.8183 67.7295 43.0058 60.8535 42.7012 59.7812C42.1883 59.2849 41.3595 59.3523 40.6768 59.3633ZM35.0996 59.4668C34.4382 59.161 32.4163 59.3534 31.5898 59.3672C31.3936 59.4336 30.8511 59.6858 30.8291 59.8721C30.6376 61.5192 30.718 63.9938 30.7373 65.5918C30.7971 70.5247 30.169 70.1181 34.7852 69.9805C35.0773 69.8911 35.2911 69.8088 35.4375 69.5146C35.7427 68.9007 35.6435 62.0663 35.5664 60.9102C35.5434 60.5657 35.4947 60.1941 35.3789 59.8672C35.323 59.7093 35.2594 59.5407 35.0996 59.4668ZM37.6602 42.4473C36.4527 42.1928 35.0831 42.4439 34.0586 43.1357C33.0351 43.8352 32.3325 44.9134 32.1055 46.1318C31.8931 47.3133 32.1059 48.5505 32.7881 49.5498C33.6537 50.981 35.6126 51.9592 37.2764 51.6006C37.7949 51.591 38.638 51.2864 39.0664 51.0068C41.3708 49.5031 42.0425 46.6945 40.5684 44.4219C39.9012 43.4022 38.8542 42.6914 37.6602 42.4473ZM36.2393 7.71289C36.0212 8.32897 35.8066 8.97021 36.4404 9.43555C36.5956 8.97912 36.6034 8.06096 36.2393 7.71289Z" fill="white"/>
<path d="M171.762 56.8076C173.169 56.9121 174.766 56.7338 176.15 56.8848V57.0098C174.422 59.5559 172.998 62.4374 171.316 65.0186C170.303 66.5751 170.374 67.2375 170.433 69.0596C170.409 70.9562 170.559 73.0309 170.385 74.9072C169.097 74.9743 167.77 75.0343 166.487 74.8877C166.271 72.1929 166.611 69.306 166.346 66.6221C166.3 66.1622 165.32 64.6451 165.04 64.1836L162.417 59.8428C161.907 58.9957 161.1 57.7469 160.762 56.8604C162.158 56.8467 163.772 56.7969 165.149 56.8682C166.108 58.5023 167.519 60.7315 168.389 62.3643C168.575 62.0601 169.385 60.7812 169.479 60.5332C169.884 60.0035 171.457 57.3904 171.762 56.8076Z" fill="white"/>
<path d="M38.3856 0H38.5156C39.041 0.388289 39.2526 0.662678 39.0897 1.34437L38.9541 1.46205C38.7476 1.44322 38.4188 1.4502 38.2012 1.44874C37.7833 1.05457 38.1795 0.430202 38.3856 0Z" fill="white"/>
<path d="M38.2012 1.44874C38.4188 1.4502 38.7476 1.44321 38.9541 1.46205C38.7812 1.98831 38.5719 2.53558 38.3807 3.0585L38.2903 3.05108C38.2111 2.78645 38.0839 2.60897 37.9382 2.37563C38.1363 2.00167 38.2541 1.84039 38.2012 1.44874Z" fill="white"/>
<path d="M94.1807 56.6987C96.6 56.8427 98.8669 57.93 100.494 59.726C100.439 59.3935 100.28 59.0756 100.048 58.7778C99.9703 58.6785 99.8848 58.5814 99.792 58.4868C99.6993 58.3922 99.5998 58.2999 99.4941 58.2104C100.023 58.658 100.403 59.1709 100.494 59.7251C102.493 61.9315 103.308 64.9643 102.687 67.8755C102.064 70.7868 100.079 73.2219 97.3525 74.4184C94.2485 75.7805 90.6466 75.3381 87.9648 73.2651L87.7324 73.0786C85.366 71.1244 84.1158 68.1176 84.4121 65.0503C84.7181 61.8839 86.6283 59.0958 89.4717 57.6675V57.6684C90.3829 57.2108 91.3623 56.9065 92.3701 56.768L92.8037 56.7192C93.2613 56.6783 93.7222 56.6714 94.1807 56.6987ZM98.4111 64.3325C97.2844 59.2634 90.325 59.0109 88.9521 63.9985C88.2393 66.5919 88.944 69.4752 91.3184 70.937L91.5215 71.0288C92.5654 71.4712 94.0393 71.6395 95.0859 71.2759L95.3535 71.2075C98.0541 70.4084 98.9623 66.8142 98.4111 64.3325Z" fill="white"/>
<path d="M10.1244 84.3929C12.0573 85.2082 15.1367 85.7789 17.2095 86.026C25.8627 87.0588 32.8219 83.4444 40.2616 79.631C44.3631 77.5287 48.4715 75.845 53.1441 75.532C56.3606 75.3165 58.388 75.8296 61.4341 76.6035C61.459 76.9821 61.5672 77.3389 61.4254 77.6227C61.0087 77.8399 60.11 77.5243 59.7987 77.7935C49.5051 78.225 42.7575 85.5027 33.6473 89.0606C25.2444 92.3419 16.98 89.7545 9.54542 85.3824C9.64545 84.8504 9.7509 84.8047 10.1244 84.3929Z" fill="white"/>
<path d="M126.365 56.8318L130.272 56.8626C130.802 57.7418 132.159 59.5075 132.809 60.4163L138.39 68.1906C138.5 64.5288 138.254 60.4587 138.482 56.8611C139.719 56.8177 141.058 56.8437 142.295 56.8733C142.365 58.4864 142.402 74.6045 142.178 74.9046C140.951 74.9748 139.721 74.992 138.492 74.9564C137.574 73.8416 136.64 72.4009 135.787 71.1947C134 68.628 132.18 66.0842 130.328 63.5636C130.422 64.428 130.375 66.3662 130.376 67.2894L130.357 74.9036C129.278 75.0201 127.461 74.9686 126.361 74.9567C126.315 74.1134 126.298 73.1961 126.31 72.3522C126.384 67.2037 126.17 61.9698 126.365 56.8318Z" fill="white"/>
<path d="M132.038 34.1776C133.093 34.1455 134.148 34.1455 135.203 34.1776C137.871 37.7597 140.828 41.8554 143.36 45.5369C143.535 41.8466 143.311 37.8991 143.417 34.1702C144.671 34.1351 145.985 34.1565 147.242 34.1601C147.338 35.7686 147.419 51.5975 147.207 52.2125L147.005 52.2578C145.908 52.2792 144.566 52.3182 143.492 52.2283C142.865 51.5688 141.38 49.3836 140.811 48.5786C139.042 46.0395 137.247 43.5182 135.428 41.0151C135.249 41.7716 135.325 43.6088 135.31 44.4405C135.265 47.0137 135.381 49.6554 135.323 52.2201C134.21 52.326 132.475 52.2633 131.341 52.2457C131.171 49.2144 131.301 45.1312 131.303 42.0045L131.307 37.2553C131.308 36.367 131.277 35.1834 131.359 34.3188C131.536 34.1697 131.762 34.2025 132.038 34.1776Z" fill="white"/>
<path d="M75.4834 34.171C76.3617 34.1361 77.6575 34.1326 78.5088 34.2189C79.1525 35.5308 79.7089 37.0213 80.2471 38.3917C82.0561 42.9977 84.0834 47.5724 85.8447 52.1925C84.8482 52.3052 82.8702 52.3044 81.8633 52.2101C81.3531 51.2489 80.8728 49.8237 80.3564 48.7472L78.7217 48.7501C77.0199 48.763 75.3179 48.758 73.6162 48.7345C73.1405 49.8784 72.6801 51.0285 72.2354 52.1847C71.1483 52.3401 69.3982 52.2589 68.2666 52.2355C68.4617 51.2599 69.4356 49.0278 69.8564 47.9816L72.9775 40.2384C73.5016 38.9454 74.9186 35.113 75.4834 34.171ZM76.9238 40.4747C76.4219 41.6438 75.3498 44.139 75.0068 45.3116C75.7035 45.4123 76.5447 45.3784 77.2598 45.3702L78.9502 45.3468C78.7297 44.6598 77.3073 40.8429 76.9238 40.4747Z" fill="white"/>
<path d="M121.471 56.8573C121.568 59.4011 121.502 62.0173 121.51 64.5575C121.519 67.5246 121.925 70.8456 119.71 73.1982C117.937 75.081 115.547 75.2547 113.17 75.1093L112.696 75.0761L112.155 74.9384C110.977 74.6245 110.342 74.3341 109.287 73.4306C106.534 70.3015 107.377 67.5026 107.272 63.6425C107.218 61.6156 107.198 59.1808 107.328 57.1796C107.334 57.0755 107.341 56.9711 107.35 56.8671C108.577 56.8574 109.968 56.8166 111.182 56.8554C111.54 59.6866 111.161 62.8947 111.288 65.7597C111.363 67.4866 110.863 69.4075 112.436 70.6005C113.12 71.129 113.993 71.3513 114.846 71.2148C117.837 70.7648 117.525 67.9247 117.523 65.6913L117.516 60.0019C117.514 59.1436 117.468 57.6784 117.549 56.8681C118.791 56.8029 120.212 56.8446 121.471 56.8573Z" fill="white"/>
<path d="M120.553 34.1461L126.91 34.1725C126.957 35.3909 126.95 36.6109 126.89 37.8287C126.619 37.8488 126.334 37.8818 126.063 37.9098L120.695 37.8736C120.696 39.0028 120.722 40.2267 120.693 41.3483C121.855 41.3508 126.061 41.5114 126.882 41.318L126.922 42.4381L126.914 44.9889C125.309 44.9081 122.351 44.9636 120.716 45.0231C120.666 46.1132 120.712 47.4401 120.727 48.5484C122.632 48.4926 124.938 48.5661 126.877 48.5787C126.971 49.7047 126.932 51.0657 126.907 52.2008C125.831 52.3327 123.553 52.2904 122.392 52.2799C120.625 52.2641 118.469 52.3336 116.734 52.2311C116.671 51.4393 116.636 50.5301 116.651 49.7359C116.746 44.5688 116.526 39.3163 116.718 34.1578C117.967 34.096 119.293 34.141 120.553 34.1461Z" fill="white"/>
<path d="M76.1843 56.6384C77.8628 56.6877 79.3873 57.1849 80.9148 57.8581C80.939 59.3176 80.9662 60.8074 80.8376 62.2605C79.4171 61.6279 78.4324 61.0339 76.8796 60.6989C71.6302 59.5669 69.3927 65.9045 72.0964 69.5798V69.5808C74.0578 71.9899 77.1065 71.4859 79.5837 70.323C79.9977 70.1314 80.4387 69.9174 80.8601 69.7497C80.9266 71.1934 80.9431 72.639 80.9089 74.0837C78.8054 74.8933 76.2194 75.4496 73.9372 75.0417L73.4851 74.947L72.9939 74.8073C70.7566 74.1042 69.263 72.7109 68.0144 70.7536L67.7507 70.3249L67.5857 69.9197C65.0513 63.5606 68.9383 56.4257 76.1843 56.6384Z" fill="white"/>
<path d="M146.059 56.8385C146.961 56.886 148.049 56.8225 148.975 56.8408C151.964 56.8996 155.242 56.7221 158.201 56.894C158.23 58.1935 158.228 59.4935 158.192 60.7928C156.915 60.8502 155.446 60.8233 154.154 60.8283C154.078 64.1026 154.14 67.6051 154.138 70.8973L154.131 74.906C152.695 74.9946 151.537 74.9776 150.111 74.8944C150.012 70.3227 150.105 65.4779 150.092 60.8727C148.821 60.8006 147.338 60.8201 146.051 60.8084C145.922 59.5537 145.889 58.0847 146.059 56.8385Z" fill="white"/>
<path d="M103.384 34.1616C104.69 34.1462 105.997 34.1458 107.304 34.1605C107.408 35.5079 107.337 37.0966 107.35 38.4654C107.384 41.693 107.256 45.0358 107.403 48.2526C109.049 48.3293 110.96 48.1411 112.578 48.3045C112.6 48.9296 112.73 51.8639 112.482 52.2319C111.099 52.3307 109.198 52.2657 107.766 52.2782C106.64 52.2881 104.393 52.3307 103.389 52.1649C103.172 49.4675 103.329 45.2951 103.301 42.4912C103.281 40.4758 103.199 36.0282 103.384 34.1616Z" fill="white"/>
<path d="M90.0458 34.1806C91.3394 34.1215 92.6356 34.1335 93.9275 34.2162L93.9309 48.2169C95.6976 48.2461 97.4643 48.2613 99.2309 48.2627C99.255 48.8677 99.3634 51.8015 99.1484 52.2007C97.6888 52.3213 95.7191 52.2699 94.2303 52.2752C93.0571 52.2792 91.1046 52.3294 89.9959 52.2024C89.8841 48.5378 89.9933 44.6225 89.9598 40.9347C89.946 39.4706 89.8764 35.4741 90.0458 34.1806Z" fill="white"/>
<path d="M40.5353 89.156C47.0215 84.2058 57.5378 77.7462 66.1212 80.735C67.8759 81.346 69.2373 82.3867 70.5543 83.6781C72.5759 85.7877 72.7598 86.7733 73.8302 89.2429C73.1145 88.5326 72.3514 87.8713 71.5462 87.2643C63.3624 80.6462 49.3555 85.1806 40.9248 89.236L40.5353 89.156Z" fill="white"/>
<path d="M70.5543 83.6781C72.5759 85.7877 72.7598 86.7733 73.8302 89.2429C73.1145 88.5326 72.3514 87.8713 71.5462 87.2643C73.0047 85.9615 70.4352 85.1843 70.5543 83.6781Z" fill="white"/>
<path d="M104.996 79.6293C108.798 79.5636 110.292 79.3891 109.979 83.7944C109.915 84.7016 110.018 85.0375 109.382 85.7905C108.255 86.6377 106.375 86.4534 104.991 86.3657C104.919 85.6863 104.948 84.1726 104.953 83.4389C104.96 82.3327 104.885 80.6882 104.996 79.6293ZM106.408 80.8393L106.405 85.2036C106.983 85.1767 107.695 85.1795 108.229 84.9682C108.639 84.2765 108.865 81.6209 108.084 81.0043C107.828 80.8022 106.808 80.8348 106.408 80.8393Z" fill="white"/>
<path d="M91.0195 79.6419L92.2993 79.6311C93.1611 80.9846 94.0083 82.3473 94.8409 83.719C94.8581 82.4121 94.8005 80.9204 94.8994 79.637L96.2524 79.6468C96.3539 81.2092 96.3805 84.8562 96.2524 86.3881C95.8464 86.4035 95.4 86.3992 94.9906 86.4044C94.2122 85.4182 93.1457 83.4845 92.3879 82.31C92.412 83.658 92.4275 85.0061 92.4343 86.3545C91.9458 86.4104 91.5063 86.3958 91.016 86.3906C90.9386 84.3631 90.9696 81.684 91.0195 79.6419Z" fill="white"/>
<path d="M142.891 79.6277L144.161 79.6402C145.026 80.8992 145.909 82.4537 146.703 83.7809C146.693 82.5019 146.639 80.8737 146.734 79.6272L148.106 79.6351C148.178 81.7375 148.121 84.2608 148.102 86.3829C147.751 86.4371 147.158 86.4138 146.786 86.4113L144.251 82.2773C144.259 82.7785 144.41 85.7031 144.141 86.3029C144.064 86.474 143.178 86.3709 142.862 86.3339C142.845 84.2598 142.777 81.6621 142.891 79.6277Z" fill="white"/>
<path d="M158.641 79.6466C159.223 79.6264 159.85 79.6439 160.437 79.6505C161.144 81.8373 161.918 84.1304 162.538 86.3331C162.09 86.3864 161.61 86.3864 161.157 86.3975C161.013 86.0751 160.817 85.4689 160.569 85.3292L158.416 85.3126C157.961 86.6173 157.831 86.4728 156.537 86.3507C157.051 84.2541 158.108 81.8326 158.641 79.6466ZM159.518 81.585C159.193 82.5513 158.962 83.2532 158.724 84.2501L159.83 84.2618L160.189 84.2393C160.406 83.821 159.793 81.8643 159.518 81.585Z" fill="white"/>
<path d="M132.252 79.6367C132.781 80.9685 134.046 84.9584 134.403 86.3701C133.947 86.4131 133.409 86.405 132.945 86.4102C132.834 86.0637 132.728 85.6857 132.554 85.3691L132.381 85.3223L130.254 85.3154C130.164 85.6524 130.019 86.0276 129.899 86.3594C129.394 86.4144 128.905 86.38 128.397 86.3594C129.08 84.1043 129.857 81.8803 130.542 79.625L132.252 79.6367ZM131.396 81.502C131.133 82.3874 130.792 83.3456 130.564 84.2246L131.704 84.25L132.125 84.2402C132.253 84.0038 131.562 81.6804 131.396 81.502Z" fill="white"/>
<path d="M80.8541 79.6175L82.2024 79.6448C82.2595 81.7393 82.2757 84.294 82.1942 86.3829C81.7623 86.407 81.2587 86.3872 80.8209 86.3812C80.7042 84.9663 80.698 81.0355 80.8541 79.6175Z" fill="white"/>
<path d="M118.731 79.6512L119.965 79.628C119.987 81.0264 120.063 85.061 119.932 86.2797L119.794 86.382L118.595 86.3493C118.556 85.4491 118.392 80.0541 118.731 79.6512Z" fill="white"/>
<path d="M61.4341 76.6035C62.8432 77.072 64.0246 77.5535 65.3906 78.1459C63.2216 77.7743 61.9756 77.8089 59.7987 77.7935C60.11 77.5243 61.0087 77.8399 61.4254 77.6227C61.5672 77.3389 61.459 76.9821 61.4341 76.6035Z" fill="white"/>
<path d="M7.02375 83.301L10.1244 84.3929C9.7509 84.8047 9.64545 84.8504 9.54542 85.3824C8.78293 84.9774 7.77878 84.2826 7.05136 83.792L7.28303 83.7974L7.36619 83.7176C7.24453 83.5447 7.16732 83.4566 7.02375 83.301Z" fill="white"/>
<path d="M7.05136 83.792C6.29823 83.2828 5.36558 82.7737 4.67542 82.2078C5.45313 82.583 6.23598 82.9474 7.02375 83.301C7.16732 83.4566 7.24453 83.5447 7.36619 83.7176L7.28303 83.7974L7.05136 83.792Z" fill="white"/>
<path d="M40.9248 89.236C40.6434 89.3882 39.778 89.8998 39.521 89.8663L39.5173 89.9471L39.4384 89.9548L39.4351 89.9514C39.517 89.9273 40.344 89.2841 40.5353 89.156L40.9248 89.236Z" fill="white"/>
</g>
<defs>
<clipPath id="clip0_9_333">
<rect width="176.151" height="90.7176" fill="white"/>
</clipPath>
</defs>
</svg>
