<svg width="120" height="120" viewBox="0 0 120 120" fill="none" xmlns="http://www.w3.org/2000/svg">
<path d="M58.9497 25.9486C77.7188 25.4007 93.3794 40.1674 93.9351 58.9359C94.4906 77.7044 79.7309 93.3717 60.9624 93.9349C42.1835 94.4986 26.5046 79.7278 25.9488 60.9486C25.393 42.169 40.1705 26.4968 58.9497 25.9486ZM92.8736 58.5258C92.0914 40.3438 76.7221 26.2357 58.5396 27.0101C40.3469 27.7851 26.2289 43.1663 27.0113 61.3588C27.7938 79.5512 43.1797 93.6629 61.3716 92.8734C79.5537 92.0838 93.6556 76.7077 92.8736 58.5258Z" fill="#A5A5A5"/>
<path d="M80.548 55.3083C78.8114 57.6163 78.5008 60.1763 80.2023 62.5955C80.828 62.016 81.3279 61.9988 81.8342 61.3386C80.5651 59.7274 80.8763 58.0478 81.966 56.4529L82.8381 57.1648C82.5999 57.4596 82.4166 57.7956 82.299 58.156C82.0321 58.9876 82.2077 59.5946 82.5793 60.3279L83.2023 59.6062C82.8939 58.7828 83.0124 58.3913 83.4396 57.6648L84.3713 58.4265C84.8705 57.7919 84.9236 57.2853 85.2707 56.5974C85.5208 56.1029 86.2556 55.8908 86.715 56.2556C86.8976 56.4007 87.0096 56.6174 87.0236 56.8503C87.0755 57.7001 86.1269 58.0371 85.5656 58.4402C85.3633 58.5858 85.1944 58.7692 85.0236 58.95L85.8849 59.6687C85.8265 59.7272 85.7666 59.7841 85.7052 59.8396C85.1633 60.3241 84.7633 60.3642 84.0861 60.325L83.5148 61.0632C84.7791 61.425 85.6349 61.0987 86.507 60.157L87.3713 60.8669C86.0526 62.2827 84.4925 62.8562 82.6535 61.9958C81.9945 62.6912 82.2972 62.9765 81.7219 63.8328C84.3892 65.011 86.9226 64.183 88.7834 62.0203L89.8791 62.9119C87.4472 65.6749 83.9103 66.8634 80.5578 64.9568C78.2791 67.6206 75.9978 70.444 73.7531 73.1482C74.3244 74.2258 75.028 75.7563 74.9338 77.0007C74.8787 77.7459 74.5187 78.4358 73.9386 78.907C73.1415 79.564 72.1269 79.7491 71.1232 79.6677C71.0776 79.5075 71.027 79.3475 70.9709 79.1902C70.8461 78.8393 70.4553 77.6124 70.1808 77.4802C69.7052 77.9028 70.3856 78.7497 70.5138 79.3777C70.7006 80.3318 70.5022 81.3203 69.9631 82.1287C69.3731 83.0112 68.6845 83.3492 67.6808 83.5417C67.7148 82.497 67.535 82.1191 67.0158 81.2576C68.6483 81.7112 68.9207 81.0964 68.3781 79.6033L66.7238 81.5759C68.0197 83.4496 66.9035 85.1945 64.8537 85.5808C64.856 85.0119 64.7635 84.6642 64.6213 84.1228L64.2736 84.5144C64.7167 86.288 63.9309 87.1758 62.4963 88.0398C63.4251 89.074 64.2294 90.214 64.8908 91.4373C64.1282 91.0252 63.3898 90.5699 62.6799 90.073C62.4176 89.8863 60.9894 88.6966 60.8605 88.6521L60.7248 88.7546C60.5183 89.149 60.6234 89.739 60.6603 90.199C60.419 89.9535 60.3132 89.7921 60.1203 89.5144C59.3165 90.5171 59.3366 90.6619 58.1095 90.9539C58.1172 89.7118 58.2949 89.6645 59.0861 88.7234C58.786 88.5777 58.5817 88.4483 58.3029 88.2722C58.6873 88.2167 59.361 88.2796 59.6584 88.0046C59.7649 87.9063 59.7875 87.7836 59.7775 87.6443C59.7399 87.1711 37.6898 66.9671 35.3517 64.825L34.4133 63.9539C33.5713 64.7604 32.5259 65.9225 32.2951 67.0984C32.2069 67.5484 32.2391 67.9521 32.1222 68.408C31.9237 68.5371 32.0281 68.5061 31.798 68.5125C30.8269 67.7204 32.8966 64.0794 33.5138 63.3875C33.6958 63.1833 33.8741 62.9322 34.049 62.7205C32.9318 61.5217 31.5656 59.8658 30.4924 58.6091C30.1763 58.7331 29.9624 58.8027 29.6213 58.7068C29.2883 58.6288 28.7284 58.1583 28.6086 57.8269C27.9523 56.009 30.6592 54.8817 31.4054 56.8308C31.5619 57.2398 31.4882 57.4414 31.301 57.8337C32.6509 58.9476 34.2243 60.1163 35.6183 61.2009C36.9851 60.0971 38.8575 58.9916 40.6535 58.8113C40.9719 58.7791 41.8766 58.9051 41.3752 59.364C41.2514 59.4762 40.0607 59.4507 39.6799 59.5974C38.4985 60.0533 37.7437 60.7725 36.8469 61.6169C44.5589 69.7179 52.3431 77.7497 60.1994 85.7107C60.5839 84.886 60.9124 84.4816 61.6515 83.9636C61.7838 84.3422 61.9201 84.7192 62.0588 85.0955L62.3947 84.6853C61.7347 82.9718 61.966 82.0395 63.2863 80.7449C63.4841 81.0708 64.0702 82.2022 64.422 82.1921L64.5422 82.0173C64.452 81.5865 63.9096 81.045 63.758 80.5779C63.073 78.4658 64.7155 77.1863 66.4601 76.6384C66.6228 76.9767 67.22 78.3784 67.5051 78.4812C67.5905 78.3688 67.6844 78.1459 67.6213 78.0212C66.6988 76.2167 65.7911 74.431 67.2853 72.5925C67.8981 71.8387 68.6452 71.7169 69.5939 71.6414C69.9726 72.497 70.4585 73.3591 70.9133 74.1755C70.7406 74.096 70.5658 74.0202 70.3908 73.947C70.0197 73.7943 69.3695 73.6035 69.0002 73.7996C68.1199 74.268 68.9353 75.685 69.2326 76.2966L71.3537 73.7058C70.0409 71.3991 69.1643 69.1391 70.051 66.4841C70.542 64.9687 71.6312 63.7194 73.0646 63.0251C74.1505 62.496 76.2953 61.9131 76.9035 63.3845C77.127 64.0804 77.2006 65.0428 77.1252 65.7703C76.9045 67.9001 74.5486 65.6158 73.8215 65.114C73.733 65.0532 73.4413 65.1008 73.3517 65.157C70.9462 66.6707 72.0814 69.6464 73.008 71.6716C73.6647 70.9347 74.4518 69.9151 75.0969 69.1267L79.3302 63.9656C77.102 61.4891 77.1491 57.9679 78.881 55.2341C79.0571 54.9561 79.2632 54.6796 79.4562 54.4128L80.548 55.3083ZM35.759 62.6863L63.3488 89.9216C63.4972 90.0642 63.6436 90.2104 63.799 90.3455C62.5437 88.7057 61.5443 87.6343 60.0988 86.1619L56.2101 82.198L43.8185 69.5515L38.592 64.2126C38.3157 63.93 36.6898 62.2357 36.4855 62.0906L35.759 62.6863ZM66.4621 78.6873C65.8319 78.8037 65.4997 79.0089 65.6154 79.7244C65.6442 79.8994 65.7823 80.1966 65.9494 80.2751C65.9873 80.2455 66.0627 80.1917 66.0929 80.1589L67.2551 78.7263C66.9952 78.7058 66.7207 78.675 66.4621 78.6873ZM72.1408 75.0886C71.5772 75.7664 70.8986 76.5392 70.3654 77.2263C70.6983 77.3117 71.0296 77.3997 71.3654 77.4734C71.9945 77.5723 72.8527 77.7452 72.9865 76.9529C73.0532 76.5569 72.3819 75.3743 72.1408 75.0886ZM76.2912 64.2478C76.1267 64.4439 76.082 64.4717 76.0304 64.7117C76.0724 64.8996 76.0253 64.8224 76.1867 64.9441L76.4084 64.9636C76.5868 64.7771 76.6147 64.7643 76.6867 64.5261C76.6429 64.3233 76.6947 64.4015 76.5344 64.2781L76.2912 64.2478Z" fill="#A5A5A5"/>
<path d="M57.0441 29.1042C58.5133 29.0709 60.4512 29.0667 61.9044 29.113C61.5 31.0289 60.2971 33.381 60.715 35.4792C60.9638 36.4906 61.6457 36.8525 61.6652 37.9635C61.6827 38.9662 60.0347 40.1004 61.2677 40.7262C62.9171 41.5627 65.3388 41.8555 67.172 41.7018C68.3297 41.6047 68.3751 40.6721 69.7882 41.5758C70.4602 41.2021 70.8453 40.9145 71.6613 40.9577C72.3922 40.9965 73.0765 41.3307 73.5558 41.8844C74.0726 42.4832 74.3184 43.2689 74.2365 44.0553C74.1147 45.201 73.3969 45.714 72.5793 46.3581C72.8374 47.1806 73.247 48.2142 73.546 49.0378L75.463 54.3005C75.8253 55.287 76.1898 56.273 76.5304 57.2731C76.9097 58.3893 75.3157 59.4787 74.4845 59.9469C72.9271 60.792 71.4358 60.9179 69.7296 60.4743C68.8218 60.2384 66.1794 58.744 66.3703 57.61C66.484 56.9354 67.1526 55.3245 67.4171 54.5993L69.3097 49.401C69.6715 48.4071 70.1132 47.2711 70.4152 46.277C69.9972 46.0246 69.266 45.6671 69.297 45.1315C69.592 44.6012 70.0701 44.9855 70.3966 45.2458C72.1333 46.6287 74.4634 44.234 72.9435 42.4733C72.6053 42.0763 72.1209 41.8327 71.6007 41.7995C70.3118 41.7288 70.0867 42.6817 69.5089 43.2926C68.6838 43.9574 68.2146 43.2928 67.5363 42.8776C67.0218 42.6274 66.1978 42.6694 65.6476 42.6598C64.4073 42.6381 63.2704 42.7011 62.1085 43.1081C61.8592 43.1954 60.9834 42.3627 60.5871 42.9167C60.0919 43.6094 60.7187 43.9872 60.7023 44.8288C60.2006 46.1167 58.3889 46.0165 58.0334 44.7311C57.9529 44.3041 58.5445 43.5991 58.3683 43.2243C57.7204 42.0394 57.1411 43.4585 56.13 42.9596C55.3795 42.5892 53.7546 42.7251 52.9181 42.6589C51.5279 42.5486 51.3259 42.9027 50.2179 43.4919C49.1971 44.0347 48.8537 42.2822 48.1291 42.026C47.6265 41.8244 47.2861 41.6876 46.675 41.8952C46.1784 42.0642 45.7698 42.4251 45.5412 42.8971C45.3189 43.361 45.2927 43.895 45.4679 44.3786C45.652 44.8669 46.0221 45.2625 46.4972 45.4782C46.9431 45.6805 47.5684 45.7196 48.0089 45.5075C48.3531 45.3418 49.3155 44.2536 49.4875 45.2428C49.3559 45.7044 48.7705 46.0371 48.3644 46.3288C49.2372 48.8982 50.2704 51.4959 51.1642 54.0661C51.5412 55.1501 51.9875 56.2544 52.3371 57.3493C52.4023 57.5537 52.4313 57.7252 52.3566 57.9313C52.0428 58.7963 50.7658 59.6988 49.9728 60.0827C48.479 60.8236 46.8855 60.9392 45.3058 60.4079C44.3317 60.0807 41.8097 58.6692 42.2199 57.3844C42.5701 56.2886 43.0343 55.0745 43.4318 53.9762L46.1779 46.362C45.623 45.8696 45.0841 45.6049 44.7716 44.8923C44.4515 44.1568 44.4523 43.3216 44.7736 42.5866C45.0663 41.9014 45.6329 41.37 46.3361 41.1237C47.5268 40.6982 48.0344 41.0896 48.9748 41.5485C50.2002 40.9528 49.9542 41.0729 51.2345 41.6393C51.3658 41.6974 52.1101 41.7379 52.2921 41.738C54.1284 41.7389 56.2996 41.5366 57.8566 40.4782C58.4618 40.042 57.0932 38.8214 57.0949 38.0885C57.0989 36.7653 58.2865 35.9595 58.1613 34.5954C58.1039 33.1954 57.7227 31.9883 57.3244 30.6628C57.24 30.382 56.9157 29.4449 56.9123 29.2175L57.0441 29.1042ZM47.6447 46.6852C47.6132 47.9023 47.6056 49.199 47.63 50.4167C47.6788 52.8447 47.5559 55.3423 47.6447 57.7624C48.731 57.7694 50.7314 57.8333 51.7287 57.7448C51.5808 57.1945 51.2697 56.4098 51.0675 55.8542L48.4796 48.7575C48.3626 48.4371 47.814 46.8095 47.6447 46.6852ZM71.8361 53.8376C71.8361 54.5476 71.7825 57.1479 71.9318 57.6598C72.3037 57.838 75.4642 57.7955 75.9611 57.7477C75.8247 57.2257 75.5087 56.4292 75.3156 55.8991L72.7277 48.8005C72.6016 48.4556 72.0354 46.756 71.8429 46.6286L71.8361 53.8376ZM46.9005 46.6901C46.5568 47.1835 42.8375 57.4933 42.8556 57.7135C42.8571 57.7311 42.8627 57.7481 42.8664 57.7653C43.4312 57.7689 46.5652 57.8423 46.8468 57.6891C46.9805 56.8884 47.0365 47.179 46.9005 46.6901ZM71.088 46.6296C70.9102 46.9848 70.7886 47.3532 70.6535 47.7262C69.4858 50.94 68.3192 54.1541 67.1574 57.3698C67.1007 57.5252 67.0776 57.6019 67.0968 57.7663C68.4208 57.7679 69.8049 57.788 71.1242 57.7643C71.1523 56.6557 71.2424 47.0762 71.088 46.6296Z" fill="#A5A5A5"/>
<path d="M80.8936 67.1044C82.5517 67.0014 82.9106 68.3764 82.79 69.7255C82.4359 73.7029 79.0981 75.6377 75.4082 75.3457L74.9219 74.2373C74.6883 73.721 74.4019 73.1725 74.1484 72.6621C76.0407 73.1116 78.7386 73.471 80.0967 71.6972C81.0572 70.5119 80.0101 70.1767 79.207 69.4462C77.1638 67.5874 79.1482 67.2145 80.8936 67.1044ZM80.3984 67.5224C80.2018 67.715 80.1548 67.7365 80.0752 67.9882C80.1278 68.2197 80.1698 68.2469 80.4248 68.2773C80.6121 68.0964 80.6598 68.0745 80.7354 67.8369C80.6891 67.6035 80.6509 67.5727 80.3984 67.5224Z" fill="#A5A5A5"/>
<path d="M67.1956 30.6876C70.9235 30.5294 70.8384 35.6389 67.6409 36.2022C63.7451 36.2869 64.0404 31.1957 67.1956 30.6876ZM67.4583 31.67C65.8133 32.1838 65.3458 35.2061 67.4417 35.1973C68.4542 34.7821 69.0293 33.3674 68.6116 32.3887C68.4899 32.0982 68.2537 31.8703 67.9593 31.7579C67.7967 31.6959 67.6302 31.6846 67.4583 31.67Z" fill="#A5A5A5"/>
<path d="M72.7197 32.5085C73.0644 32.6449 73.6416 32.9973 73.9828 33.1921C73.9922 34.5876 74.0402 36.0117 73.8652 37.3959C74.4136 36.2395 74.9896 35.2146 75.6153 34.1023L76.6045 34.6589L74.8895 37.736C74.6647 38.139 74.2269 38.9787 73.9694 39.3136L72.8771 38.7087C72.8777 37.2412 72.842 35.7621 72.9895 34.3036C72.4059 35.271 71.6895 36.681 71.1077 37.7172L70.1214 37.1577L72.7197 32.5085Z" fill="#A5A5A5"/>
<path d="M80.8475 39.5301C82.3858 39.514 83.5951 40.6642 84.1026 42.042L83.1818 42.4878C82.8944 41.6736 82.2371 40.777 81.2983 40.7316C80.3793 40.6872 79.4205 41.5536 79.4433 42.4922C79.4597 43.1579 79.8373 43.5495 80.2903 43.97L81.1291 43.2438L80.7609 42.8188L80.6474 42.657C80.7252 42.4288 81.1215 42.1535 81.3281 41.9858C81.7694 42.4958 82.2067 43.0088 82.641 43.5248C81.9251 44.1165 81.1987 44.7578 80.4911 45.3642C80.3992 45.3058 80.3085 45.2458 80.2183 45.1842C79.355 44.5914 78.4518 43.6572 78.2739 42.5844C78.1656 41.9135 78.3377 41.2277 78.7497 40.6874C79.2607 40.0226 80.0281 39.6411 80.8475 39.5301Z" fill="#A5A5A5"/>
<path d="M86.2679 45.21C86.5161 45.4719 86.874 46.2381 87.0443 46.5762L83.0726 50.5294L82.4457 49.3575L82.8519 48.9766L83.476 48.3643L82.764 47.0255C82.3093 47.1331 81.8446 47.233 81.3881 47.335L80.7972 46.2071C82.3178 45.8415 84.4622 45.5048 86.0443 45.2051C86.1583 45.1857 86.1489 45.1959 86.2679 45.21ZM85.6195 46.3126C84.98 46.4833 84.3346 46.6298 83.684 46.751L84.098 47.5635L84.2084 47.6817C84.5114 47.569 85.3862 46.6567 85.6625 46.376L85.6195 46.3126Z" fill="#A5A5A5"/>
<path d="M34.5499 43.4175C34.8128 43.8551 35.4789 45.4968 35.7152 46.0495C36.8031 45.9559 38.1848 45.9319 39.3005 45.8834L38.6242 47.1289C37.7468 47.1619 36.8688 47.1782 35.9908 47.1776L36.2492 47.8253L37.7904 48.6696C37.6411 48.9464 37.3783 49.474 37.1869 49.6935L37.0907 49.6861L32.4998 47.174L33.0803 46.1047L35.1358 47.2173C34.6945 46.4426 34.2464 45.5265 33.8331 44.7265L34.5499 43.4175Z" fill="#A5A5A5"/>
<path d="M45.8414 33.1364C45.9437 33.3521 45.6749 35.5107 45.6373 35.9538C46.6078 36.4831 47.8523 37.0709 48.8552 37.5754C48.4504 37.8106 48.0223 38.0907 47.6228 38.341L45.3164 37.096L45.2228 37.7745L46.1519 39.2586L45.4991 39.6665L45.1208 39.9124L42.2687 35.372L43.3005 34.728C43.7254 35.3922 44.1436 36.0607 44.555 36.7333C44.5496 35.8296 44.6054 34.8054 44.6354 33.8937C45.0292 33.6375 45.4422 33.3862 45.8414 33.1364Z" fill="#A5A5A5"/>
<path d="M37.8216 39.3116C37.9629 39.374 38.4693 39.8169 38.6209 39.9435L37.2873 41.5447L38.1176 42.2288L39.3692 40.7194L40.1493 41.3807L38.8925 42.8674C39.1982 43.1367 39.5316 43.404 39.8471 43.6646C40.0951 43.3533 40.9698 42.1933 41.2691 42.0508L41.4438 42.1463L42.0236 42.632C41.3161 43.5071 40.5468 44.4034 39.8233 45.2701C38.4741 44.1195 37.0717 42.9754 35.7074 41.8383C36.4117 41.0321 37.1314 40.1377 37.8216 39.3116Z" fill="#A5A5A5"/>
<path d="M48.6767 31.8993C48.9512 32.2435 50.5322 36.1942 50.7992 36.8221L49.6689 37.3049C48.9703 35.8567 48.2054 33.8964 47.558 32.3801L48.6767 31.8993Z" fill="#A5A5A5"/>
<path d="M42.5992 38.7603C42.7487 38.8922 43.0173 39.2182 43.16 39.381L41.6165 40.7531C41.4663 40.6575 41.1725 40.3005 41.0396 40.1502L42.5992 38.7603Z" fill="#A5A5A5"/>
<path d="M76.4353 38.0901L78.0579 39.4332L77.5311 40.0534C77.0095 39.6672 76.4189 39.1583 75.9103 38.7395L76.4353 38.0901Z" fill="#A5A5A5"/>
<path d="M26.0012 26.7056C26.9431 26.647 27.7621 26.9486 28.5878 27.4315C30.215 28.3833 33.5537 31.4759 30.8541 33.1391C30.5599 33.3204 30.2617 33.3956 29.925 33.468C28.9486 33.5714 27.93 33.2523 27.0388 32.7062C25.5882 31.8174 23.1104 29.6107 24.3042 27.687C24.6569 27.1186 25.3511 26.8244 26.0012 26.7056Z" fill="#A5A5A5"/>
<path d="M57.9356 11.7277C61.1588 11.7494 61.7553 17.5834 60.3405 19.6201C59.9999 20.1104 59.4731 20.2634 58.9246 20.3251C55.6944 20.1143 54.9282 14.6273 56.4337 12.4566C56.7812 11.9556 57.3711 11.7909 57.9356 11.7277Z" fill="#A5A5A5"/>
<path d="M100.478 38.2475C100.527 38.2367 100.567 38.2515 100.623 38.261C100.556 38.5451 98.898 40.1697 98.5796 40.4646L98.4882 40.4518L98.3401 40.2252C98.0598 39.7172 97.8081 39.1877 97.5535 38.6659C98.4707 38.5009 99.5489 38.3588 100.478 38.2475Z" fill="#A5A5A5"/>
<path d="M47.9191 97.8578C52.0742 98.3659 51.7589 103.726 48.8907 105.661C48.7746 105.716 48.5105 105.852 48.4036 105.866C44.7759 106.329 46.5145 103.137 46.8821 101.418C47.1089 100.358 47.6478 98.2635 47.9191 97.8578Z" fill="#A5A5A5"/>
<path d="M70.0646 13.0414C72.4861 13.0798 72.7782 16.0993 71.0673 17.0472C70.472 17.2117 69.6397 16.9907 69.0315 16.8601C69.2065 16.1181 69.7433 13.5837 70.0646 13.0414Z" fill="#A5A5A5"/>
<path d="M86.7746 91.5041C87.175 91.6135 88.9462 92.7081 89.4226 92.9949C89.2418 93.184 89.0158 93.3777 88.8192 93.5551C88.5224 93.8179 88.2034 94.069 87.8949 94.3195C87.5074 93.3865 87.134 92.4476 86.7746 91.5041Z" fill="#A5A5A5"/>
<path d="M59.2572 8.03837C87.9148 7.65987 111.456 30.5781 111.847 59.2356C112.237 87.8934 89.3271 111.444 60.6693 111.846C31.9957 112.247 8.42871 89.3219 8.03847 60.6477C7.64863 31.9745 30.5832 8.41714 59.2572 8.03837ZM67.1039 98.0579C66.507 98.172 66.0721 98.2457 65.4623 98.306C65.4008 99.4255 64.0566 106.564 63.5326 107.156C63.1885 107.542 62.453 107.615 62.2855 108.159C62.3066 108.278 62.3585 108.45 62.4633 108.48C62.7903 108.574 64.0507 108.271 64.3246 108.222C65.0725 108.09 65.8253 107.985 66.5814 107.908C66.5621 107.664 66.549 107.364 66.518 107.126C65.736 107.137 64.9828 107.224 65.1478 106.116C65.204 105.736 65.2843 105.355 65.3568 104.977C65.9825 104.831 66.6286 104.731 67.2631 104.623C67.5411 104.586 67.8362 104.54 68.1137 104.512C68.4046 104.96 69.0647 105.789 68.9418 106.335C68.8681 106.661 68.3851 106.781 68.1058 106.875C68.1609 107.116 68.2151 107.383 68.2777 107.62C70.0219 107.283 71.4974 107.033 73.268 106.795C73.2574 106.537 73.2536 106.298 73.2162 106.042C72.6784 106.033 72.1149 106.072 71.7064 105.655C70.9837 104.916 67.8283 99.2923 67.2699 98.0872C67.1497 98.0335 67.2057 98.0345 67.1039 98.0579ZM55.4926 98.5442C55.455 98.7713 55.3964 98.9667 55.473 99.181C55.9011 99.7129 56.8144 99.0726 56.806 100.351C56.7923 102.396 56.6315 104.444 56.5551 106.488C56.492 108.053 54.7855 106.68 55.0707 108.092C55.2293 108.24 56.4113 108.217 56.7064 108.223C57.9119 108.248 59.1137 108.298 60.3148 108.41C60.4032 108.224 60.5066 107.999 60.4428 107.789C60.4117 107.687 60.309 107.609 60.2113 107.574C59.7789 107.419 59.2809 107.532 59.0433 107.038C58.9132 106.761 59.1616 100.336 59.3412 99.9222C59.4056 99.7758 59.5513 99.6981 59.6976 99.6507C59.9883 99.5566 60.3316 99.5399 60.6351 99.5042C60.6404 99.2702 60.656 98.9762 60.6449 98.7474C58.8556 98.7433 57.2712 98.6584 55.4926 98.5442ZM44.3998 96.0091C44.2359 96.3021 44.2108 96.3904 44.1156 96.7161C44.4715 96.8805 45.0816 97.0718 45.2572 97.4573C45.4223 97.8202 43.8486 103.652 43.5433 104.242C43.4492 104.425 43.3657 104.524 43.1674 104.591C42.8111 104.71 42.2623 104.593 41.89 104.548C41.822 104.788 41.7502 105.028 41.6976 105.272C43.9939 105.911 47.3883 107.151 49.6215 106.741C51.0126 106.403 52.0589 105.819 52.81 104.564C54.15 102.325 53.7836 99.395 51.3822 98.0657C50.0195 97.3118 48.4715 97.1385 46.9896 96.7288C46.1164 96.4929 45.2655 96.2572 44.3998 96.0091ZM81.8353 92.5403C80.4036 93.3042 79.26 93.7455 77.8529 94.4075C77.9524 94.6323 78.0583 94.8857 78.1683 95.1028C78.6214 94.9605 79.3558 94.6381 79.81 94.8675C80.3871 95.1584 81.8868 98.6612 82.2475 99.4397C80.7041 98.7298 79.1721 97.9942 77.6527 97.2327C76.9031 96.864 75.539 96.234 74.9213 95.7727C73.7495 96.3774 72.661 96.8466 71.4476 97.3704C71.5524 97.6302 71.636 97.8524 71.7699 98.0999C72.2135 97.9671 72.8832 97.7322 73.3187 97.969C73.8747 98.2722 75.9451 103.285 76.14 104.064C76.1962 104.289 76.1913 104.481 76.0619 104.682C75.8587 104.998 75.2489 105.231 75.1625 105.56C75.2491 105.744 75.356 105.99 75.4613 106.158C76.8742 105.458 78.1847 104.909 79.5502 104.253C79.4642 104.003 79.3961 103.791 79.2826 103.551C78.8395 103.669 78.0616 103.977 77.6332 103.726C77.0151 103.364 75.3793 99.4649 74.9769 98.5852C77.5372 99.7811 80.4874 101.419 83.016 102.747C83.5603 102.471 84.0448 102.227 84.6078 101.986C84.0389 100.806 81.0836 94.9211 81.3324 94.053C81.4274 93.723 81.9271 93.426 82.1957 93.2317C82.1067 93.0029 82.0133 92.7083 81.8353 92.5403ZM34.3715 90.0638C34.2178 90.2938 34.0857 90.4832 33.9584 90.7308C34.2845 91.0263 34.8509 91.4507 34.9223 91.9183C35.0135 92.5176 32.011 97.1077 31.4584 97.6819C31.2598 97.8886 31.0874 97.9755 30.7982 97.972C30.458 97.9678 30.0489 97.78 29.7377 97.6507C29.6036 97.8578 29.4475 98.0867 29.3324 98.302C30.7072 99.0875 31.8622 99.7823 33.1967 100.635C33.4252 100.392 33.4748 100.294 33.6351 100.008C33.3003 99.7173 32.6364 99.2681 32.599 98.804C32.5343 97.9963 34.8139 94.5339 35.3617 93.6604C35.6057 95.6007 35.8334 97.5432 36.0443 99.4876C36.149 100.428 36.2577 101.742 36.4066 102.661C36.9116 102.945 37.4061 103.213 37.8851 103.54C38.0742 103.385 38.5214 102.525 38.6898 102.251C39.8538 100.358 40.9403 98.2829 42.3539 96.5696C42.6709 96.1857 43.4269 96.5008 43.8334 96.6507C43.9697 96.4343 44.11 96.2286 44.2152 95.9964C42.8659 95.2355 41.7308 94.5597 40.4271 93.7122C40.283 93.9258 40.136 94.1295 40.0219 94.3606C40.3478 94.6294 41.2057 95.2698 41.1342 95.6175C40.9093 96.702 39.272 99.2396 38.7172 100.159C38.2765 97.9125 38.0523 95.5769 37.7191 93.3089C37.6568 92.8847 37.6347 92.4798 37.6361 92.052C36.4862 91.4117 35.4797 90.7761 34.3715 90.0638ZM86.3978 88.5706C85.931 89.0164 85.5319 89.3417 85.0316 89.7454C85.456 90.5648 85.7822 91.4886 86.0883 92.3665C86.7093 94.1476 87.3993 95.9397 87.8705 97.7659C88.0701 98.5397 87.6944 98.9493 87.2279 99.5159C87.3859 99.7108 87.5471 99.9234 87.725 100.099C88.823 99.1103 89.7676 98.2919 90.9271 97.3694C90.7603 97.1142 90.6769 96.9752 90.4691 96.7464C89.8645 97.1157 89.2351 97.604 88.809 96.6458C88.6458 96.2789 88.5185 95.8824 88.3822 95.5032C88.6905 95.2043 88.9514 94.9716 89.2797 94.6936C89.6338 94.3916 90.1289 93.9429 90.4935 93.679C90.9478 93.8962 91.8608 94.2545 92.1107 94.6917C92.312 95.0429 91.9337 95.4353 91.7172 95.6976C91.8792 95.8783 92.0634 96.0962 92.2377 96.2601C93.5488 95.0818 94.6977 94.0942 96.0785 92.9856C95.9228 92.7153 95.854 92.5885 95.6527 92.345C95.2021 92.616 94.7468 92.9436 94.1908 92.8138C93.2197 92.5872 87.4672 89.304 86.3978 88.5706ZM30.4389 85.9788C30.2421 86.1596 30.0776 86.3028 29.9037 86.5081C30.1817 86.8616 30.5244 87.2062 30.5746 87.6429C30.4051 88.3323 26.36 92.3373 25.5726 92.9876C25.3289 93.1895 24.5453 92.571 24.309 92.4036C24.1092 92.5932 23.9572 92.7294 23.7855 92.9476C25.1278 94.2065 26.3295 95.2844 27.6361 96.6048C27.9207 96.4216 28.0047 96.3627 28.2475 96.1292C27.9984 95.7985 27.51 95.2867 27.5219 94.8606C27.5345 94.4881 31.8296 89.9937 32.3529 89.596C32.4346 89.5339 32.5193 89.4834 32.6078 89.4319C33.0473 89.6361 33.2971 89.8018 33.6928 90.0892C33.867 89.9095 34.0534 89.7273 34.2094 89.5325C33.3828 88.7938 32.5698 88.0395 31.7719 87.2698C31.5001 87.0063 30.6933 86.1761 30.4389 85.9788ZM96.4428 58.2747C95.522 38.1144 78.4309 22.5185 58.2709 23.4417C38.1138 24.3649 22.5211 41.4524 23.4418 61.6097C24.3627 81.7666 41.4483 97.3616 61.6058 96.4427C81.7663 95.5243 97.3639 78.4349 96.4428 58.2747ZM98.4301 64.5872C97.8652 66.7594 97.3571 68.9269 96.6986 71.0833C96.5662 71.5173 96.1418 72.7896 96.2963 73.2776C96.7124 73.8337 97.9448 74.5092 98.5717 74.8616C98.8272 74.5529 98.9138 74.4468 99.1156 74.094C98.727 73.7511 97.7009 72.8568 97.6439 72.3235C97.5936 71.8471 98.206 69.1319 98.892 69.262C99.6013 69.3972 100.884 69.6922 101.567 69.9544C101.46 70.3788 101.349 70.8275 101.249 71.2513C101.012 72.2532 100.629 72.2629 99.7455 72.222C99.66 72.5345 99.5818 72.8059 99.5297 73.1272C100.813 73.4357 101.654 73.664 102.899 74.0931C103.06 73.7073 103.11 73.5756 103.204 73.1683C101.997 72.5871 102.139 72.5134 102.47 71.2737C102.567 70.9367 102.662 70.5832 102.765 70.2503C103.391 70.4077 105.387 70.828 105.825 71.178C105.918 71.538 105.689 72.1915 105.587 72.5667C105.161 74.1406 105.043 74.2048 103.522 74.0755C103.444 74.3851 103.382 74.6132 103.342 74.9339C104.147 75.1984 105.155 75.5052 105.914 75.8587C106.311 73.5302 107.388 69.8438 108.068 67.5335C107.817 67.4328 107.585 67.3361 107.327 67.2542C107.13 67.7217 107.013 68.1606 106.619 68.4602C105.896 68.6645 100.406 67.01 99.3314 66.6009C98.9246 66.4452 99.143 65.1983 99.1898 64.7786C98.9161 64.695 98.7172 64.6229 98.4301 64.5872ZM18.848 63.1976C18.6737 63.5089 18.6173 63.62 18.4906 63.9651C19.4 64.3245 20.6182 64.749 21.0336 65.7112C21.9052 67.7358 20.6374 69.5948 18.7377 70.347C17.437 70.8621 15.866 71.1189 14.4838 70.5979C13.1016 70.0775 12.6298 68.1514 13.0873 66.8509C13.3237 66.179 14.169 65.816 14.8051 65.5433C14.7466 65.2711 14.7341 65.108 14.5756 64.8763C14.2318 64.689 12.2061 65.1384 11.642 65.1565C11.7021 65.6053 11.7494 66.056 11.7846 66.5071C12.1482 70.1157 13.4465 73.9331 17.9037 73.555C21.1718 73.2774 23.0733 70.6915 22.6 67.4905C22.1684 64.5926 21.8108 63.7179 18.848 63.1976ZM98.5336 53.5686C98.5172 54.3358 98.5348 55.1811 98.5336 55.9524C98.5324 56.4261 98.4307 57.8433 98.4896 58.2356C98.6998 58.3706 98.9897 58.3493 99.2396 58.3431C99.3263 57.893 99.3989 57.0061 99.8197 56.7337C100.419 56.3474 104.877 56.5356 105.858 56.5735C103.448 58.5018 100.774 60.3715 98.3002 62.2327C98.3136 62.8711 98.3333 63.4368 98.2777 64.0765C99.3881 64.08 106.573 63.9698 107.218 64.5843C107.491 64.8453 107.547 65.4122 107.617 65.7698L108.408 65.7669L108.396 65.0452C108.395 64.4821 108.507 61.5492 108.427 61.2366C108.21 61.1518 107.936 61.1322 107.716 61.2112C107.485 61.584 107.628 62.8498 106.878 62.9388C105.335 63.1225 103.317 63.0386 101.77 63.0286C102.818 62.0435 104.414 60.8941 105.557 59.9769C106.219 59.4448 107.843 58.1493 108.516 57.8001C108.511 56.4099 108.55 55.1849 108.591 53.8001C108.33 53.7935 108.051 53.7819 107.791 53.7854C107.681 54.2869 107.598 55.0147 107.132 55.3284C106.643 55.6576 100.927 55.3474 100.185 55.1712C99.9533 55.1162 99.7574 55.0076 99.6176 54.8108C99.3682 54.46 99.5881 53.714 99.0639 53.5804C98.8948 53.5372 98.7068 53.5604 98.5336 53.5686ZM20.7308 57.3352C20.6759 57.7034 20.5583 58.7738 20.2719 58.8294C19.1534 59.0465 13.401 59.1614 12.6478 58.9554C12.3606 58.6932 12.3077 58.0677 12.2592 57.6712C12.0046 57.6769 11.7188 57.6755 11.4682 57.7005C11.5142 59.2016 11.5931 60.6951 11.5609 62.1976C11.5564 62.4111 11.5358 62.8306 11.5844 63.0227C11.7958 63.1615 12.0871 63.1169 12.3373 63.094C12.4107 62.6277 12.4287 62.094 12.7367 61.761C13.722 61.3355 19.0304 61.5347 20.349 61.6009C20.4535 61.6065 20.633 61.8441 20.6566 61.9651C20.7785 62.5895 20.6067 63.1041 21.5053 62.9427C21.6551 62.7823 21.6041 62.3893 21.5961 62.1487C21.5511 61.1 21.5223 60.0506 21.5101 59.0013C21.5055 58.5353 21.6464 57.7231 21.3607 57.4085C21.1456 57.3168 20.9693 57.3376 20.7308 57.3352ZM12.9613 46.1409C12.9409 47.7072 12.5945 49.2634 12.3324 50.806C12.0369 52.3828 11.8658 53.9766 11.3598 55.5042C11.3437 55.5524 11.332 55.5856 11.3822 55.6097C12.272 56.0349 13.4104 56.3025 14.3471 56.6311C14.4885 56.3482 14.6044 56.1223 14.7162 55.8235C12.8829 54.7606 12.5953 54.7586 13.1654 52.6087C14.6781 52.8566 16.1889 53.1182 17.6967 53.3938C18.5551 53.5506 19.4597 53.693 20.2924 53.9573C20.5757 54.0473 20.678 54.1597 20.8236 54.4104C20.8308 54.889 20.7247 55.5971 20.9906 55.8899C21.2079 55.991 21.5729 56.0304 21.6351 55.7132C21.7911 54.9151 21.8665 54.103 22.0033 53.3011C22.1052 52.5108 22.6044 50.6563 22.5873 49.9944C22.4373 49.8763 22.2966 49.7589 22.0912 49.7952C21.9825 49.8145 21.8956 49.8986 21.8392 49.9905C21.587 50.4028 21.5484 51.1609 21.0258 51.3411C20.5971 51.4887 14.4204 50.3107 13.5355 50.1194C13.8095 47.9845 13.8083 47.8843 16.0092 47.9622C16.036 47.6893 16.0752 47.3677 16.0932 47.0979C15.5351 46.9565 15.1273 46.8434 14.5853 46.6634C14.2351 46.547 13.2559 46.1675 12.9613 46.1409ZM92.3373 36.7532C92.1477 36.8538 91.9328 36.9616 91.7514 37.0735C92.4713 38.4306 93.0858 39.592 93.7221 40.9993C93.962 40.9026 94.236 40.8012 94.4613 40.68C94.2851 40.1173 93.8981 39.2156 94.8226 39.0384C95.271 38.9524 95.7986 38.9029 96.2562 38.8685C96.6718 39.6254 97.2305 40.6732 97.5775 41.4524C97.3844 41.6838 97.1818 41.925 96.9857 42.1507C96.1974 43.0556 95.932 43.1567 95.2221 42.1966C95.012 42.3113 94.7217 42.459 94.5297 42.5901C95.163 43.7745 96.245 45.6966 96.6986 46.9065C97.3499 48.6456 97.7184 50.8565 98.2035 52.637C98.4756 52.611 98.7059 52.5939 98.975 52.5394C98.9358 52.0654 98.8234 51.4489 99.0219 51.0423C99.3999 50.7118 101.507 50.0828 101.991 50.1741C103.588 50.4771 105.346 50.9157 106.842 51.5599C107.389 51.7971 107.666 52.5221 107.9 53.0218L108.659 52.804C108.231 51.328 107.94 49.9085 107.548 48.5198C107.304 48.5621 107.005 48.6051 106.771 48.6702C106.825 49.1676 107.068 50.2255 106.196 50.1233C105.617 50.0555 105.028 49.85 104.453 49.7435C103.978 49.6198 103.424 49.4904 102.965 49.3382C103.41 48.9181 105.639 46.8323 106.081 46.8079C106.265 46.952 106.361 47.193 106.471 47.4056C106.71 47.3302 106.981 47.2522 107.212 47.1653C106.685 45.3795 106.378 43.9232 105.929 42.1819L105.173 42.3304C105.246 42.9824 105.392 43.7321 104.865 44.2727C103.783 45.3815 102.345 46.8209 101.072 47.6712C100.513 48.044 98.5944 48.6375 98.0775 48.0833C97.6278 47.6395 97.5521 46.549 97.3988 45.927C97.3538 45.759 97.5817 45.2969 97.6889 45.178C98.5469 44.0911 99.6114 42.9125 100.568 41.9085C101.556 40.8701 102.717 39.4812 103.757 38.5657C103.443 37.9985 103.162 37.4778 102.907 36.8782C100.558 37.5098 97.6339 37.4113 95.2592 37.7552C92.7082 38.1244 93.224 37.0054 92.3373 36.7532ZM18.0814 34.4466C17.6366 35.5068 17.1974 36.5559 16.6859 37.5862C16.5508 37.8585 16.3805 38.1927 16.2719 38.471C16.5023 38.6032 16.7259 38.7397 16.9691 38.846C17.229 38.4487 17.4673 38.0457 17.8168 37.722C18.6103 38.2071 19.7989 39.9051 20.3715 40.72C19.6344 40.759 16.883 40.9564 16.3939 40.763C16.2636 40.5111 16.3421 40.3151 16.4037 40.0237C16.1787 39.9301 15.9156 39.8118 15.685 39.7474C15.0365 41.3313 14.3291 42.8907 13.5648 44.4222C13.7923 44.5476 14.0223 44.6782 14.2543 44.7942C14.8404 43.8257 15.1771 43.4353 16.3764 43.3479C17.1805 43.2894 17.9986 43.2254 18.8041 43.1897C20.3066 43.1045 20.7764 42.979 22.1576 43.6683C23.7056 44.4407 23.5408 44.3621 23.0922 45.9642C23.3346 46.0756 23.5587 46.184 23.8109 46.2727C24.5971 44.374 25.2428 42.9568 26.1459 41.1136C25.9142 40.9585 25.73 40.8275 25.4789 40.7024C25.2335 41.0462 24.8217 41.7588 24.4721 41.8499C24.0782 41.9524 21.8429 40.9018 21.6527 40.6683C20.7858 39.6021 18.8156 37.327 18.5883 35.9671C18.5481 35.7245 18.7534 34.9886 18.81 34.7757C18.5406 34.6375 18.3715 34.5429 18.0814 34.4466ZM90.3109 20.8216C90.0909 20.9937 89.9349 21.1108 89.7348 21.3099C89.98 21.7131 90.1382 21.9313 90.2641 22.3899C89.9778 23.8066 86.5491 29.5041 85.6762 30.7513C86.0735 31.1326 86.3475 31.4332 86.6928 31.8675C88.5781 30.9316 90.7361 30.0649 92.7016 29.2835C91.8399 31.1077 90.6757 33.4194 89.6537 35.1702C90.0733 35.564 90.3719 35.8783 90.7582 36.304C92.5574 35.4795 94.3691 34.682 96.1918 33.9124C97.1026 33.529 98.5839 32.8709 99.518 32.6897C100.044 32.8474 100.258 32.9828 100.719 33.2894C100.918 33.1137 101.123 32.9415 101.302 32.7474L100.735 32.1741C99.865 31.2899 99.1041 30.4178 98.2924 29.4788C98.0401 29.6656 97.9035 29.7632 97.6781 29.9915C98.5858 31.31 98.6427 31.5431 97.1517 32.3265C95.8506 32.9953 94.5265 33.6194 93.182 34.1966C93.9066 32.5121 95.3472 29.61 96.2357 28.0677C95.8026 27.6513 95.5441 27.3736 95.1625 26.9095C93.4908 27.7907 91.2796 28.8721 89.4984 29.5335C89.9218 28.7637 91.9011 25.1022 92.3851 24.7786C92.7211 24.7821 93.0679 25.0684 93.3529 25.264C93.6239 25.0571 93.7139 24.9835 93.9428 24.7327C93.214 23.986 92.4981 23.2264 91.7963 22.4544C91.4632 22.0818 90.6428 21.0885 90.3109 20.8216ZM33.35 29.6058C33.0472 26.6058 30.3694 24.4191 27.3695 24.722C24.3697 25.0249 22.1829 27.7026 22.4857 30.7024C22.7885 33.7022 25.4664 35.8889 28.4662 35.5862C31.4661 35.2835 33.6528 32.6057 33.35 29.6058ZM37.2494 16.3753C35.4114 17.8114 31.918 19.948 29.8842 21.1936C30.0247 21.4792 30.0914 21.6267 30.2855 21.887C30.712 21.6884 31.2003 21.4041 31.6576 21.428C32.1583 21.6269 35.6789 27.1958 35.9623 28.0091C35.6749 28.4235 35.3772 28.6496 35.0014 28.9847C35.1394 29.213 35.2462 29.4016 35.4135 29.6116C37.0576 28.5221 38.5303 27.5596 40.2094 26.5159C40.0949 26.2874 39.9686 26.0181 39.8373 25.803C39.491 25.9653 39.1126 26.1522 38.7641 26.3011C38.6172 26.3522 38.4196 26.4292 38.2816 26.3509C37.6862 26.0111 36.8931 24.5463 36.516 23.9368C37.1412 23.5287 38.1634 22.8287 38.8207 22.5198C39.2147 22.7839 39.4638 23.0051 39.8119 23.3333C40.1351 23.1324 40.2556 23.0587 40.5424 22.803C39.8007 21.7083 39.248 20.8921 38.6215 19.7386C38.3009 19.8947 38.1077 19.983 37.8119 20.1917C37.9454 20.5652 38.1694 21.0231 38.0521 21.3919C37.7155 21.8063 36.4179 22.5683 35.891 22.9017C35.5336 22.5234 34.2269 20.4208 33.9691 19.9427C34.3682 19.6201 34.7628 19.3559 35.184 19.0784C36.7325 18.0583 36.7921 18.1525 37.9916 19.4222C38.3129 19.2296 38.3786 19.189 38.6557 18.9173C38.2092 18.1108 37.8072 17.3055 37.4135 16.4729C37.3877 16.4189 37.3021 16.3909 37.2494 16.3753ZM78.4525 14.0735C77.9094 14.8986 77.2879 15.8677 76.6693 16.639C76.9578 16.953 77.0024 16.9894 77.3568 17.2405C78.7739 15.9019 79.0652 15.4847 80.8568 16.7288C80.3229 17.8015 77.8333 22.939 77.1566 23.4339C76.6867 23.5466 75.9715 23.2301 75.5004 23.0638C75.3611 23.3018 75.2409 23.4958 75.1303 23.7503C75.5703 23.9918 76.0225 24.2091 76.476 24.4241C77.8755 25.0879 79.2371 25.8226 80.601 26.5569C80.7694 26.3108 80.8854 26.1507 81.0199 25.8811L80.1107 25.222C79.9322 25.0638 79.7742 24.9385 79.7631 24.68C79.7362 24.0621 82.6043 18.7658 83.1322 17.7962C84.9743 18.6578 85.2424 18.6846 84.4721 20.7727C84.8051 20.961 84.8963 21.0058 85.2621 21.1351C85.9434 20.0689 86.472 19.4112 87.1498 18.431C85.8199 18.0416 84.5969 17.3448 83.3666 16.7181C82.274 16.1614 81.1674 15.6204 80.0883 15.0384C79.7272 14.8436 78.7524 14.1109 78.4525 14.0735ZM50.0629 11.762C48.8928 12.2425 47.755 12.5645 46.5443 12.929C44.9195 13.4251 43.287 13.8957 41.6478 14.3421C41.7085 14.5979 41.7661 14.8726 41.849 15.1204C42.312 15.0467 42.9107 14.8939 43.3285 15.0638C43.7401 15.5215 45.5302 21.6107 45.5902 22.4446C45.4709 22.8472 44.7794 23.0787 44.4096 23.2454C44.4768 23.5038 44.498 23.6904 44.6674 23.8929C44.8099 23.9137 49.5229 22.4929 50.0902 22.3206C50.0484 22.0571 50.0122 21.7903 49.9486 21.5315C49.4553 21.6171 49.0246 21.6892 48.5277 21.7425C48.2977 21.667 48.1697 21.5814 48.0668 21.347C47.735 20.5908 47.492 19.6242 47.2611 18.8226C47.6989 18.6872 48.1749 18.5397 48.6127 18.4085C49.9653 18.0032 49.9131 17.9797 50.599 19.1565C50.905 19.0655 51.1705 18.9924 51.4652 18.8645C51.0654 17.6461 50.7116 16.61 50.4642 15.3499C50.1725 15.4198 49.8542 15.4894 49.5678 15.5706C49.5858 15.9919 49.6672 16.4683 49.4447 16.8118C49.0409 17.0784 47.4756 17.5201 46.9262 17.6614C46.7341 17.0789 45.9813 14.8276 46.0307 14.3343C46.2928 14.04 47.102 13.8607 47.4818 13.7415C49.1885 13.206 49.1713 13.4293 49.9623 14.9085C50.2317 14.8097 50.4613 14.7323 50.7191 14.6028C50.6468 14.2733 50.2119 11.8863 50.1273 11.7845L50.0629 11.762ZM66.3998 11.1507C66.3062 11.3662 66.1903 11.5632 66.2142 11.7913C66.5204 12.4407 67.6028 11.8999 67.3295 13.2727C66.983 15.0099 66.5183 16.7111 66.1098 18.4358C66.0237 18.8012 65.7994 19.9993 65.433 20.1438C65.0472 20.2957 64.4076 20.0382 64.0775 20.43C64.0274 20.641 64.0637 20.682 64.1478 20.8811C64.1876 20.9125 68.8246 22.09 69.2836 22.1692C69.3608 21.903 69.4315 21.6898 69.4672 21.4134C69.0499 21.2389 68.5834 21.1005 68.3148 20.7444C68.1703 20.221 68.6316 18.3913 68.8178 17.8548C69.0412 17.9144 69.5522 18.0121 69.6469 18.2308C70.114 19.3168 70.4103 20.4323 70.9037 21.5188C71.5716 22.6719 72.5765 22.9568 73.8285 23.2874C74.1695 23.3784 74.5123 23.4614 74.8568 23.5364C74.9973 23.2604 75.1083 23.0576 75.2113 22.763C75.0047 22.6761 74.5882 22.51 74.4242 22.3675C73.5217 21.5848 73.0028 20.0917 72.5082 19.011C72.3724 18.7155 72.1601 18.1157 72.0805 17.8196C72.914 17.6248 73.8391 17.3617 74.2933 16.5833C75.0966 15.2065 74.5903 13.7612 73.2982 12.9925C72.9857 12.81 72.6518 12.6661 72.3041 12.5638C71.429 12.2969 70.1267 12.0815 69.185 11.8587C68.4917 11.6948 66.9827 11.2333 66.3998 11.1507ZM63.8207 15.6145C63.5823 12.61 60.9546 10.3664 57.9496 10.6028C54.9431 10.8395 52.6982 13.4694 52.9359 16.4759C53.1739 19.4824 55.8046 21.7267 58.8109 21.4876C61.8158 21.2484 64.0583 18.6192 63.8207 15.6145Z" fill="#A5A5A5"/>
<path d="M66.0375 100.759C66.3419 100.98 67.3007 102.905 67.5483 103.378L66.8312 103.53L65.5616 103.73C65.6764 102.815 65.873 101.667 66.0375 100.759Z" fill="#A5A5A5"/>
</svg>
