<svg width="228" height="60" viewBox="0 0 228 60" fill="none" xmlns="http://www.w3.org/2000/svg">
<g clip-path="url(#clip0_9_334)">
<path fill-rule="evenodd" clip-rule="evenodd" d="M22.6323 19.1667H25.9853V14.1667H22.6323V19.1667Z" fill="#A5A5A5"/>
<path fill-rule="evenodd" clip-rule="evenodd" d="M26.8235 18.3333V21.6666H30.1764V18.3333H29.9731H26.8235Z" fill="#A5A5A5"/>
<path fill-rule="evenodd" clip-rule="evenodd" d="M31.8529 18.3333H34.3676V15.8333H31.8529V18.3333Z" fill="#A5A5A5"/>
<path fill-rule="evenodd" clip-rule="evenodd" d="M26.8235 15.8333H30.1764V12.5H26.8235V15.8333Z" fill="#A5A5A5"/>
<path fill-rule="evenodd" clip-rule="evenodd" d="M8.38232 19.1667H11.7353V14.1667H8.38232V19.1667Z" fill="#A5A5A5"/>
<path fill-rule="evenodd" clip-rule="evenodd" d="M3.35291 15.8333H6.70585V12.5H3.35291V15.8333Z" fill="#A5A5A5"/>
<path fill-rule="evenodd" clip-rule="evenodd" d="M0 18.3333H2.51471V15.8333H0V18.3333Z" fill="#A5A5A5"/>
<path fill-rule="evenodd" clip-rule="evenodd" d="M3.35291 21.6666H6.70585V18.3333H3.35291V21.6666Z" fill="#A5A5A5"/>
<path fill-rule="evenodd" clip-rule="evenodd" d="M8.38232 20.8333H11.8386V22.3762H13.4117V25.8333H8.38232V20.8333Z" fill="#A5A5A5"/>
<path fill-rule="evenodd" clip-rule="evenodd" d="M14.25 25.8333H19.2794V22.5H14.25V25.8333Z" fill="#A5A5A5"/>
<path fill-rule="evenodd" clip-rule="evenodd" d="M22.5048 20.8333H25.9853V25.8333H20.9559V22.3762H22.5048V20.8333Z" fill="#A5A5A5"/>
<path fill-rule="evenodd" clip-rule="evenodd" d="M12.5735 30H15.9264V26.6667H12.5735V30Z" fill="#A5A5A5"/>
<path fill-rule="evenodd" clip-rule="evenodd" d="M15.9265 34.1667H18.4412V31.6667H15.9265V34.1667Z" fill="#A5A5A5"/>
<path fill-rule="evenodd" clip-rule="evenodd" d="M18.4412 30H21.7941V26.6667H18.4412V30Z" fill="#A5A5A5"/>
<path fill-rule="evenodd" clip-rule="evenodd" d="M20.9559 8.33331H25.9853V13.3333H22.4972V11.775H20.9559V8.33331Z" fill="#A5A5A5"/>
<path fill-rule="evenodd" clip-rule="evenodd" d="M14.25 11.6666H19.2794V8.33331H14.25V11.6666Z" fill="#A5A5A5"/>
<path fill-rule="evenodd" clip-rule="evenodd" d="M8.38232 8.33331H13.4117V11.775H11.8365V13.3333H8.38232V8.33331Z" fill="#A5A5A5"/>
<path fill-rule="evenodd" clip-rule="evenodd" d="M18.4412 6.66665H21.7941V3.33331H18.4412V6.66665Z" fill="#A5A5A5"/>
<path fill-rule="evenodd" clip-rule="evenodd" d="M15.9265 2.5H18.4412V0H15.9265V2.5Z" fill="#A5A5A5"/>
<path fill-rule="evenodd" clip-rule="evenodd" d="M12.5735 6.66665H15.9264V3.33331H12.5735V6.66665Z" fill="#A5A5A5"/>
<path fill-rule="evenodd" clip-rule="evenodd" d="M12.5735 21.6667H21.7941V12.5H12.5735V21.6667Z" fill="#A5A5A5"/>
<path fill-rule="evenodd" clip-rule="evenodd" d="M23.993 28.5099V28.0224H24.4574C24.6502 28.0224 24.8807 28.0507 24.8807 28.2549C24.8807 28.5465 24.5245 28.5099 24.3015 28.5099H23.993ZM24.5655 28.6882C24.8438 28.6799 25.0601 28.5657 25.0601 28.2599C25.0601 28.0015 24.9176 27.8457 24.501 27.8457H23.8136V29.4082H23.993V28.6882H24.3602L24.8103 29.4082H25.0408L24.5655 28.6882ZM24.3392 29.8515C23.6359 29.8515 23.0752 29.2965 23.0752 28.5957C23.0752 27.9015 23.6359 27.3465 24.3392 27.3465C25.0375 27.3465 25.594 27.9015 25.594 28.5957C25.594 29.2965 25.0375 29.8515 24.3392 29.8515ZM24.3392 30.0299C25.1305 30.0299 25.7726 29.3857 25.7726 28.5957C25.7726 27.8082 25.1305 27.1682 24.3392 27.1682C23.5429 27.1682 22.8966 27.8082 22.8966 28.5957C22.8966 29.3857 23.5429 30.0299 24.3392 30.0299Z" fill="#A5A5A5"/>
<path fill-rule="evenodd" clip-rule="evenodd" d="M57.0525 5.18671C62.1347 5.18671 66.0057 7.63504 66.0057 11.9892C66.0057 16.4584 61.8221 19.2959 57.4046 19.2959C56.4272 19.2959 55.449 19.18 54.5504 18.7525C57.9126 18.5575 61.5488 16.4975 61.5488 12.7667C61.5488 9.34587 59.1246 7.98587 55.9972 7.98587C55.0584 7.98587 54.1598 8.06337 53.2595 8.21837V25.7484C53.2595 27.925 53.221 29.48 55.2931 30.6459V30.7625H47.5126V30.6459C49.5059 29.9467 49.272 27.0709 49.272 25.3217V10.6675C49.272 8.91837 49.5059 6.08087 47.552 5.30337V5.18671H57.0525Z" fill="#A5A5A5"/>
<path fill-rule="evenodd" clip-rule="evenodd" d="M75.9772 8.49069L72.1062 18.2857H79.8087L75.9772 8.49069ZM71.0894 21.1624L69.0567 26.6432C68.2361 28.819 67.9619 29.9465 69.8388 30.6457V30.7632H62.645V30.6457C64.9116 29.519 65.5772 27.3424 66.4372 25.1265L72.9662 8.91819C73.5136 7.51819 74.2563 5.88652 72.3803 5.30319V5.18652H78.5572L86.6898 25.1265C87.5892 27.3424 88.2925 29.519 90.5214 30.6457V30.7632H82.507V30.6457C84.4224 29.7915 84.1089 29.3632 83.0535 26.6432L80.942 21.1624H71.0894Z" fill="#A5A5A5"/>
<path fill-rule="evenodd" clip-rule="evenodd" d="M101.431 5.18671C106.671 5.18671 109.525 7.90754 109.525 11.445C109.525 14.865 106.514 17.5475 103.308 18.2859L108.938 25.3217C110.58 27.3417 113.043 29.3634 115.272 30.7625H111.675C109.603 30.7625 108.312 30.2575 107.139 28.8192L102.37 22.95L98.7722 17.4692C101.901 17.0034 105.536 15.565 105.536 11.9109C105.536 9.11254 103.113 7.48004 100.492 7.59671C99.5937 7.63504 98.7328 7.75254 97.8342 7.90754V25.3217C97.8342 27.1092 97.5995 29.9467 99.5937 30.6459V30.7625H92.1259V30.6459C94.12 29.9467 93.8459 27.0709 93.8459 25.3217V10.6675C93.8459 8.87921 94.12 6.04171 92.1259 5.30337V5.18671H101.431Z" fill="#A5A5A5"/>
<path fill-rule="evenodd" clip-rule="evenodd" d="M126.143 10.7063C127.434 8.87961 129.78 6.46961 127.159 5.30295V5.18628H134.197V5.22545L125.205 16.6921L133.103 26.9921C134.315 28.5863 135.801 29.6746 137.794 30.6463V30.7629H134.119C132.205 30.7629 130.405 30.0246 129.702 29.0913L121.022 17.4696L126.143 10.7063ZM116.526 10.6288C116.526 8.87961 116.759 6.04211 114.766 5.30295V5.18628H122.273V5.30295C120.278 6.00295 120.514 8.87961 120.514 10.6288V25.2821C120.514 27.0704 120.278 29.9079 122.273 30.6463V30.7629H114.766V30.6463C116.759 29.9079 116.526 27.0313 116.526 25.2821V10.6288Z" fill="#A5A5A5"/>
<path fill-rule="evenodd" clip-rule="evenodd" d="M154.373 12.2224C155.428 9.46236 156.757 6.27486 154.336 5.30319V5.18652H160.16L149.836 31.929C147.102 30.1407 146.201 29.8299 145.068 26.759L139.164 10.8615C138.422 8.87902 137.835 6.62486 136.114 5.30319V5.18652H141.822L141.784 5.65319C141.784 6.50819 142.527 8.41319 142.839 9.26819L149.056 26.1765L154.373 12.2224Z" fill="#A5A5A5"/>
<path fill-rule="evenodd" clip-rule="evenodd" d="M164.149 10.6672C164.149 8.87884 164.421 6.04217 162.428 5.30301V5.18634H169.857V5.30301C167.903 6.04217 168.136 8.91801 168.136 10.6672V25.3213C168.136 27.0705 167.903 29.9072 169.857 30.6463V30.763H162.428V30.6463C164.382 29.9463 164.149 27.0705 164.149 25.3213V10.6672Z" fill="#A5A5A5"/>
<path fill-rule="evenodd" clip-rule="evenodd" d="M179.32 27.4974L184.284 27.9641C186.864 28.1974 189.563 27.3816 191.517 25.6708H191.634L189.875 30.7624H173.57V30.6458C175.565 29.9466 175.332 27.0708 175.332 25.3216V10.6674C175.332 8.8791 175.565 6.0416 173.57 5.30326V5.1866H186.083C186.747 5.1866 187.412 5.26493 187.921 4.99243H188.038V9.53993H187.921C186.708 8.14076 185.105 7.98577 183.307 7.98577C181.938 7.98577 180.571 8.0241 179.32 8.25743V15.4866H183.971C184.597 15.4866 185.222 15.4866 185.692 15.2541H185.809V19.3741H185.692C185.066 18.2466 183.425 18.2858 182.213 18.2858H179.32V27.4974Z" fill="#A5A5A5"/>
<path fill-rule="evenodd" clip-rule="evenodd" d="M203.758 31.929C200.2 29.3632 199.846 29.6357 198.558 25.6324L193.944 11.289C193.241 9.15152 192.653 6.62486 190.698 5.30319V5.18652H196.407C196.25 6.04236 196.641 7.24652 196.875 7.98569L202.7 26.0599L207.275 11.289C208.018 8.91819 208.801 6.39152 206.65 5.30319V5.18652H212.163C211.929 6.15819 212.202 7.40236 212.751 9.11236L218.184 25.9432L222.602 11.7174C223.306 9.50069 224.597 6.35236 221.547 5.30319V5.18652H227.568L219.318 31.929C215.721 29.4799 215.447 29.674 214.156 25.6707L209.855 12.2999L203.758 31.929Z" fill="#A5A5A5"/>
<path fill-rule="evenodd" clip-rule="evenodd" d="M52.6643 50.6408V55.9183C52.6643 57.2299 52.4882 59.3591 53.9552 59.9124V59.9999H48.3826V59.9124C49.8486 59.3591 49.6726 57.2299 49.6726 55.9183V44.8966C49.6726 43.5849 49.878 41.4566 48.3826 40.9024V40.8149H53.9552V40.9024C52.4882 41.4566 52.6643 43.5849 52.6643 44.9258V48.5416H63.2512V44.9258C63.2512 43.5849 63.4566 41.4566 61.9611 40.9024V40.8149H67.5622V40.9024C66.0668 41.4566 66.2428 43.5849 66.2428 44.8966V55.9183C66.2428 57.2299 66.0668 59.3591 67.5622 59.9124V59.9999H61.9611V59.9124C63.4566 59.3591 63.2512 57.2299 63.2512 55.9183V50.6408H52.6643Z" fill="#A5A5A5"/>
<path fill-rule="evenodd" clip-rule="evenodd" d="M74.072 57.5507L77.7963 57.9007C79.7318 58.0757 81.7553 57.4632 83.2222 56.1807H83.3102L81.9908 59.9999H69.761V59.9124C71.2564 59.3882 71.0804 57.2299 71.0804 55.9182V44.9257C71.0804 43.5849 71.2564 41.4566 69.761 40.9024V40.8149H79.1459C79.6438 40.8149 80.1425 40.8732 80.5239 40.6691H80.6119V44.0807H80.5239C79.6144 43.0307 78.4124 42.9141 77.0629 42.9141C76.0369 42.9141 75.01 42.9432 74.072 43.1182V48.5416H77.5616C78.031 48.5416 78.5004 48.5416 78.8525 48.3666H78.9397V51.4574H78.8525C78.3831 50.6116 77.1509 50.6407 76.2422 50.6407H74.072V57.5507Z" fill="#A5A5A5"/>
<path fill-rule="evenodd" clip-rule="evenodd" d="M93.9248 43.2929L91.022 50.6404H96.7991L93.9248 43.2929ZM90.2592 52.7979L88.7336 56.9087C88.1184 58.5421 87.9122 59.3879 89.3204 59.9129V59.9996H83.9238V59.9129C85.6254 59.0671 86.1242 57.4337 86.7688 55.7721L91.6666 43.6137C92.0773 42.5646 92.6339 41.3396 91.2265 40.9021V40.8146H95.8603L101.961 55.7721C102.635 57.4337 103.163 59.0671 104.834 59.9129V59.9996H98.8226V59.9129C100.26 59.2712 100.025 58.9504 99.2334 56.9087L97.6499 52.7979H90.2592Z" fill="#A5A5A5"/>
<mask id="mask0_9_334" style="mask-type:luminance" maskUnits="userSpaceOnUse" x="106" y="40" width="14" height="20">
<path d="M106.153 40.8152H119.732V60H106.153V40.8152Z" fill="white"/>
</mask>
<g mask="url(#mask0_9_334)">
<path fill-rule="evenodd" clip-rule="evenodd" d="M114.452 57.9011C116.447 58.0169 118.177 57.3469 119.644 56.1219H119.732L118.206 60.0002H106.153V59.9127C107.648 59.3877 107.473 57.2302 107.473 55.9177V44.9261C107.473 43.5844 107.648 41.4569 106.153 40.9027V40.8152H111.754V40.9027C110.259 41.4569 110.464 43.6136 110.464 44.9261V57.6386L114.452 57.9011Z" fill="#A5A5A5"/>
</g>
<path fill-rule="evenodd" clip-rule="evenodd" d="M127.21 56.21C127.21 57.8717 127.181 59.0092 128.735 59.9125V60H122.929V59.9125C124.395 59.3592 124.219 57.23 124.219 55.9175V42.9142H121.638C120.376 42.9142 119.057 43.235 118.148 44.0808H118.06L119.086 40.6108H119.175C119.527 40.7567 119.908 40.7567 120.289 40.815H121.022H131.961C132.46 40.815 132.931 40.7858 133.31 40.6108H133.398L132.46 44.0808H132.372C131.99 43.06 130.818 42.9142 129.849 42.9142H127.21V56.21Z" fill="#A5A5A5"/>
<path fill-rule="evenodd" clip-rule="evenodd" d="M137.885 50.6408V55.9183C137.885 57.2299 137.708 59.3591 139.176 59.9124V59.9999H133.603V59.9124C135.068 59.3591 134.895 57.2299 134.895 55.9183V44.8966C134.895 43.5849 135.099 41.4566 133.603 40.9024V40.8149H139.176V40.9024C137.708 41.4566 137.885 43.5849 137.885 44.9258V48.5416H148.471V44.9258C148.471 43.5849 148.677 41.4566 147.183 40.9024V40.8149H152.784V40.9024C151.287 41.4566 151.464 43.5849 151.464 44.8966V55.9183C151.464 57.2299 151.287 59.3591 152.784 59.9124V59.9999H147.183V59.9124C148.677 59.3591 148.471 57.2299 148.471 55.9183V50.6408H137.885Z" fill="#A5A5A5"/>
</g>
<defs>
<clipPath id="clip0_9_334">
<rect width="228" height="60" fill="white"/>
</clipPath>
</defs>
</svg>
