<svg width="248" height="77" viewBox="0 0 248 77" fill="none" xmlns="http://www.w3.org/2000/svg">
<rect width="247.076" height="48.506" fill="#EEEEEE" fill-opacity="0.79"/>
<rect x="51.2225" y="44.1359" width="144.631" height="31.9802" fill="#445BAD"/>
<path d="M59.637 52.6188H69.6866V55.6006H63.3697V58.9357H68.1184V61.8291H63.3697V68.124H59.637V52.6188ZM76.6358 68.2786C75.4284 68.2786 74.3461 68.0283 73.389 67.5276C72.4319 67.0122 71.6735 66.276 71.114 65.3189C70.5692 64.3618 70.2968 63.2427 70.2968 61.9617C70.2968 60.6659 70.5765 59.5468 71.1361 58.6044C71.6956 57.662 72.454 56.9332 73.4111 56.4178C74.3829 55.9024 75.4725 55.6447 76.68 55.6447C77.9021 55.6447 78.9917 55.9024 79.9488 56.4178C80.9207 56.9184 81.6864 57.6473 82.2459 58.6044C82.8055 59.5468 83.0852 60.6659 83.0852 61.9617C83.0852 63.2427 82.7981 64.3618 82.2238 65.3189C81.6496 66.276 80.8765 67.0122 79.9047 67.5276C78.9328 68.0283 77.8432 68.2786 76.6358 68.2786ZM76.6358 65.0539C77.0922 65.0539 77.5193 64.9434 77.9168 64.7225C78.3291 64.4869 78.6604 64.1409 78.9108 63.6845C79.1611 63.228 79.2862 62.6537 79.2862 61.9617C79.2862 61.2549 79.1611 60.6806 78.9108 60.2389C78.6604 59.7824 78.3365 59.4437 77.9389 59.2229C77.5561 59.002 77.1364 58.8915 76.68 58.8915C76.2235 58.8915 75.7965 59.002 75.3989 59.2229C75.0161 59.4437 74.6995 59.7824 74.4492 60.2389C74.2136 60.6806 74.0958 61.2549 74.0958 61.9617C74.0958 62.6537 74.2062 63.228 74.4271 63.6845C74.6627 64.1409 74.9719 64.4869 75.3547 64.7225C75.7523 64.9434 76.1793 65.0539 76.6358 65.0539ZM85.0889 68.124V55.7993H88.8217V68.124H85.0889ZM88.2474 62.8231L88.8217 58.7811C89.0867 57.824 89.5505 57.073 90.2131 56.5282C90.8758 55.9687 91.7224 55.6889 92.7532 55.6889V59.5762C92.5912 59.5468 92.4366 59.5247 92.2893 59.51C92.1421 59.4953 91.9948 59.4879 91.8476 59.4879C91.3028 59.4879 90.8021 59.6204 90.3457 59.8855C89.8892 60.1358 89.5211 60.5113 89.2413 61.0119C88.9615 61.4978 88.8217 62.1015 88.8217 62.8231H88.2474ZM100.224 68.2786C98.8698 68.2786 97.8317 67.9105 97.1102 67.1742C96.3887 66.4233 96.0279 65.341 96.0279 63.9274V58.8253H94.0622V55.7993H102.212V58.8253H99.7607V63.9716C99.7607 64.325 99.8711 64.6047 100.092 64.8109C100.328 65.0023 100.607 65.098 100.931 65.098C101.079 65.098 101.211 65.0833 101.329 65.0539C101.461 65.0097 101.587 64.9508 101.704 64.8772L102.632 67.616C102.279 67.8074 101.903 67.9694 101.506 68.1019C101.123 68.2197 100.696 68.2786 100.224 68.2786ZM95.034 56.7933V55.7993C95.358 55.7993 95.623 55.6963 95.8291 55.4901C96.0353 55.284 96.1384 55.0189 96.1384 54.695V52.7955H99.7607V54.1207C99.7607 54.3269 99.7091 54.5551 99.606 54.8054C99.503 55.041 99.341 55.2545 99.1201 55.446C98.914 55.6227 98.6637 55.7404 98.3692 55.7993L95.034 56.7933ZM108.623 52.6188H112.643L115.338 66.1361H114.366L117.701 52.6188H121.809L124.99 66.1582H124.018L126.735 52.6188H130.754L126.69 68.124H122.185L119.424 56.7933H119.954L117.082 68.124H112.599L108.623 52.6188ZM136.337 68.2786C135.262 68.2786 134.32 67.9988 133.51 67.4393C132.715 66.8797 132.097 66.1288 131.655 65.1864C131.228 64.2293 131.014 63.1544 131.014 61.9617C131.014 60.7837 131.228 59.7161 131.655 58.759C132.097 57.8019 132.715 57.0436 133.51 56.484C134.32 55.9245 135.262 55.6447 136.337 55.6447C137.28 55.6447 138.097 55.9024 138.789 56.4178C139.496 56.9184 139.989 57.6252 140.269 58.5382V55.7993H144.002V68.124H142.168C141.579 68.124 141.115 67.962 140.777 67.638C140.438 67.2994 140.269 66.8355 140.269 66.2466V65.4072C139.989 66.3055 139.496 67.0122 138.789 67.5276C138.097 68.0283 137.28 68.2786 136.337 68.2786ZM137.552 65.0097C138.038 65.0097 138.487 64.8919 138.899 64.6563C139.312 64.4207 139.643 64.0747 139.893 63.6182C140.144 63.1617 140.269 62.6095 140.269 61.9617C140.269 61.3285 140.144 60.7837 139.893 60.3272C139.643 59.8707 139.312 59.5173 138.899 59.267C138.487 59.0167 138.038 58.8915 137.552 58.8915C137.051 58.8915 136.595 59.0167 136.183 59.267C135.77 59.5173 135.439 59.8707 135.189 60.3272C134.953 60.7837 134.835 61.3285 134.835 61.9617C134.835 62.6095 134.953 63.1617 135.189 63.6182C135.439 64.0747 135.77 64.4207 136.183 64.6563C136.61 64.8919 137.066 65.0097 137.552 65.0097ZM154.84 67.7043V55.7993H158.551V67.7043C158.551 68.5436 158.425 69.3461 158.175 70.1118C157.925 70.8775 157.535 71.5622 157.004 72.1659C156.489 72.7696 155.826 73.2482 155.017 73.6016C154.207 73.955 153.235 74.1317 152.101 74.1317C151.115 74.1317 150.202 73.9697 149.362 73.6457C148.538 73.3365 147.824 72.8653 147.22 72.2322C146.631 71.6137 146.189 70.8628 145.895 69.9793L149.141 68.8749C149.377 69.4639 149.723 69.9498 150.18 70.3327C150.651 70.7302 151.24 70.929 151.946 70.929C152.889 70.929 153.603 70.6345 154.089 70.0455C154.59 69.4713 154.84 68.6909 154.84 67.7043ZM155.282 62.4034C155.267 63.5519 155.134 64.4943 154.884 65.2305C154.648 65.9668 154.332 66.5411 153.934 66.9533C153.551 67.3509 153.124 67.6307 152.653 67.7927C152.182 67.9546 151.704 68.0356 151.218 68.0356C150.275 68.0356 149.436 67.8221 148.7 67.3951C147.978 66.9533 147.411 66.3349 146.999 65.5398C146.601 64.7299 146.403 63.7802 146.403 62.6905V55.7993H150.091V62.1825C150.091 63.0366 150.305 63.6992 150.732 64.1704C151.159 64.6416 151.733 64.8772 152.454 64.8772C152.955 64.8772 153.382 64.752 153.736 64.5017C154.089 64.2514 154.361 63.9127 154.553 63.4857C154.744 63.0439 154.84 62.5359 154.84 61.9617L155.282 62.4034ZM161.164 68.124V55.7993H164.897V58.4277C165.074 57.8535 165.361 57.3602 165.759 56.9479C166.156 56.5356 166.613 56.219 167.128 55.9981C167.658 55.7625 168.203 55.6447 168.762 55.6447C169.705 55.6447 170.522 55.8582 171.214 56.2853C171.906 56.7123 172.444 57.316 172.826 58.0964C173.209 58.8768 173.401 59.8045 173.401 60.8794V68.124H169.668V61.4757C169.668 60.6364 169.454 59.9738 169.027 59.4879C168.6 59.002 168.026 58.759 167.305 58.759C166.819 58.759 166.392 58.8915 166.024 59.1566C165.67 59.4069 165.39 59.7529 165.184 60.1947C164.993 60.6364 164.897 61.1371 164.897 61.6966V68.124H161.164ZM182.055 68.2786C181.157 68.2786 180.295 68.1387 179.471 67.8589C178.661 67.5791 177.939 67.1742 177.306 66.6441C176.688 66.0993 176.195 65.4441 175.826 64.6784C175.473 63.9127 175.296 63.0366 175.296 62.05C175.296 61.1076 175.466 60.2462 175.804 59.4658C176.158 58.6854 176.629 58.0081 177.218 57.4338C177.822 56.8595 178.514 56.4178 179.294 56.1086C180.089 55.7993 180.929 55.6447 181.812 55.6447C182.534 55.6447 183.218 55.7404 183.866 55.9319C184.529 56.1233 185.118 56.4031 185.633 56.7712C186.163 57.1393 186.576 57.5737 186.87 58.0743C187.179 58.575 187.334 59.1345 187.334 59.7529C187.334 60.5334 187.113 61.1812 186.671 61.6966C186.229 62.212 185.648 62.6169 184.926 62.9114C184.22 63.2059 183.439 63.4194 182.585 63.5519C181.746 63.6697 180.914 63.7213 180.089 63.7065C179.986 63.7065 179.861 63.7065 179.714 63.7065C179.581 63.6918 179.456 63.6845 179.338 63.6845C179.221 63.6697 179.132 63.6624 179.073 63.6624C179.162 64.001 179.346 64.3103 179.625 64.59C179.92 64.8551 180.288 65.0686 180.73 65.2305C181.172 65.3925 181.628 65.4735 182.099 65.4735C182.57 65.4735 183.019 65.3925 183.447 65.2305C183.888 65.0686 184.286 64.8624 184.639 64.6121C184.993 64.3618 185.294 64.082 185.545 63.7728L187.93 65.6502C187.488 66.2392 186.951 66.7325 186.318 67.13C185.685 67.5129 185 67.8 184.264 67.9914C183.542 68.1829 182.806 68.2786 182.055 68.2786ZM180.111 61.2549C180.509 61.2549 180.921 61.2328 181.348 61.1886C181.775 61.1444 182.165 61.0708 182.519 60.9677C182.887 60.8499 183.181 60.6953 183.402 60.5039C183.638 60.2978 183.756 60.0401 183.756 59.7309C183.756 59.4805 183.667 59.2597 183.491 59.0682C183.314 58.8768 183.078 58.7296 182.784 58.6265C182.489 58.5234 182.173 58.4719 181.834 58.4719C181.245 58.4719 180.73 58.6118 180.288 58.8915C179.846 59.1713 179.508 59.5247 179.272 59.9517C179.036 60.364 178.904 60.7837 178.874 61.2107C179.007 61.2254 179.184 61.2401 179.405 61.2549C179.64 61.2549 179.876 61.2549 180.111 61.2549Z" fill="white"/>
<path d="M54.8681 24.0408C55.3506 24.0408 55.6967 24.1457 55.9064 24.3555C56.1372 24.5653 56.2526 24.838 56.2526 25.1736C56.2526 25.719 56.0848 26.2015 55.7491 26.621C55.4345 27.0405 54.931 27.2608 54.2388 27.2818C52.5816 27.3027 51.0922 27.1769 49.7707 26.9042C48.3023 30.0297 46.5298 32.6309 44.4531 34.7076C42.3973 36.7633 40.3626 37.7912 38.3488 37.7912C36.5028 37.7912 35.1183 36.8158 34.1953 34.8649C33.2724 32.8931 32.7479 30.2605 32.6221 26.9671C31.3635 30.6171 29.937 33.3336 28.3428 35.1167C26.7695 36.8997 25.0914 37.7912 23.3083 37.7912C21.2945 37.7912 19.7737 36.5431 18.7458 34.0468C17.718 31.5296 17.204 28.1523 17.204 23.915C17.204 20.8314 17.4767 17.4436 18.0221 13.7517C18.169 12.7028 18.4312 11.9791 18.8088 11.5806C19.2073 11.161 19.8262 10.9512 20.6652 10.9512C21.2945 10.9512 21.777 11.0876 22.1126 11.3603C22.4692 11.633 22.6475 12.1364 22.6475 12.8706C22.6475 13.0175 22.6266 13.3007 22.5846 13.7202C21.9553 18.0205 21.6407 21.6809 21.6407 24.7016C21.6407 27.5125 21.8819 29.6836 22.3644 31.2149C22.8468 32.7463 23.4971 33.5119 24.3152 33.5119C25.0494 33.5119 25.9304 32.7463 26.9583 31.2149C28.0072 29.6627 29.0455 27.3762 30.0734 24.3555C31.1012 21.3138 31.9718 17.6953 32.685 13.4999C32.8528 12.535 33.157 11.8742 33.5975 11.5176C34.059 11.14 34.6778 10.9512 35.454 10.9512C36.1042 10.9512 36.5762 11.0981 36.8699 11.3918C37.1846 11.6645 37.3419 12.084 37.3419 12.6504C37.3419 12.986 37.3209 13.2482 37.2789 13.437C36.6916 16.8562 36.3979 20.2755 36.3979 23.6947C36.3979 26.0232 36.4713 27.8796 36.6182 29.2641C36.786 30.6486 37.0902 31.7079 37.5307 32.4421C37.9922 33.1553 38.6529 33.5119 39.513 33.5119C40.5199 33.5119 41.6421 32.7567 42.8798 31.2464C44.1174 29.7151 45.2502 27.8167 46.278 25.5512C44.9985 24.7541 44.0335 23.7262 43.3832 22.4676C42.7329 21.188 42.4078 19.7196 42.4078 18.0624C42.4078 16.4052 42.6595 15.0103 43.163 13.8775C43.6874 12.7238 44.3901 11.8637 45.2712 11.2974C46.1732 10.731 47.1696 10.4478 48.2604 10.4478C49.6029 10.4478 50.6622 10.9303 51.4384 11.8952C52.2355 12.8601 52.6341 14.1817 52.6341 15.8598C52.6341 18.2302 52.1201 20.8628 51.0922 23.7577C52.1621 23.9464 53.4207 24.0408 54.8681 24.0408ZM45.5858 17.8422C45.5858 19.8979 46.2466 21.4187 47.5681 22.4046C48.3862 20.0552 48.7953 18.1149 48.7953 16.5835C48.7953 15.7025 48.6799 15.0627 48.4492 14.6642C48.2184 14.2446 47.9038 14.0348 47.5052 14.0348C46.9388 14.0348 46.4773 14.3705 46.1207 15.0417C45.7641 15.692 45.5858 16.6255 45.5858 17.8422ZM67.2276 30.6171C67.5003 30.6171 67.7101 30.743 67.8569 30.9947C68.0247 31.2464 68.1086 31.5925 68.1086 32.033C68.1086 32.8721 67.9093 33.5224 67.5108 33.9839C66.7346 34.9279 65.6333 35.7984 64.2069 36.5955C62.8015 37.3926 61.2911 37.7912 59.6759 37.7912C57.4733 37.7912 55.7637 37.1934 54.547 35.9977C53.3304 34.802 52.7221 33.1658 52.7221 31.0891C52.7221 29.6417 53.0262 28.2992 53.6345 27.0615C54.2429 25.8029 55.082 24.8065 56.1518 24.0723C57.2426 23.3381 58.4697 22.971 59.8332 22.971C61.0499 22.971 62.0253 23.3381 62.7595 24.0723C63.4937 24.7855 63.8608 25.7609 63.8608 26.9986C63.8608 28.446 63.3364 29.6941 62.2875 30.743C61.2597 31.7708 59.5081 32.5889 57.0328 33.1973C57.5572 34.1622 58.5536 34.6447 60.022 34.6447C60.966 34.6447 62.0358 34.3195 63.2315 33.6692C64.4481 32.998 65.497 32.1274 66.378 31.0576C66.6297 30.7639 66.9129 30.6171 67.2276 30.6171ZM59.2983 26.0546C58.5222 26.0546 57.8614 26.5056 57.316 27.4076C56.7916 28.3096 56.5294 29.4004 56.5294 30.68V30.743C57.767 30.4493 58.7424 30.0088 59.4556 29.4214C60.1689 28.8341 60.5255 28.1523 60.5255 27.3762C60.5255 26.9776 60.4101 26.663 60.1793 26.4322C59.9696 26.1805 59.6759 26.0546 59.2983 26.0546ZM77.472 30.6171C77.7447 30.6171 77.9545 30.743 78.1013 30.9947C78.2691 31.2464 78.3531 31.5925 78.3531 32.033C78.3531 32.8721 78.1538 33.5224 77.7552 33.9839C76.8532 35.0957 75.8673 36.0082 74.7975 36.7214C73.7486 37.4346 72.5529 37.7912 71.2104 37.7912C69.3644 37.7912 67.9905 36.9521 67.0885 35.274C66.2074 33.5958 65.7669 31.4247 65.7669 28.7606C65.7669 26.2015 66.092 23.2857 66.7423 20.0133C67.4136 16.7409 68.389 13.93 69.6686 11.5806C70.9692 9.23114 72.511 8.05643 74.294 8.05643C75.3009 8.05643 76.0876 8.52841 76.6539 9.47237C77.2413 10.3954 77.535 11.7274 77.535 13.4685C77.535 15.9647 76.8427 18.8595 75.4582 22.1529C74.0738 25.4463 72.1963 28.7082 69.8259 31.9386C69.9728 32.7987 70.214 33.4175 70.5496 33.7951C70.8853 34.1517 71.3258 34.33 71.8712 34.33C72.7312 34.33 73.4864 34.0888 74.1367 33.6063C74.787 33.1029 75.6156 32.2533 76.6225 31.0576C76.8742 30.7639 77.1574 30.6171 77.472 30.6171ZM73.6018 11.1715C73.1193 11.1715 72.5739 12.042 71.9656 13.7831C71.3573 15.5242 70.8223 17.6848 70.3609 20.265C69.8994 22.8452 69.6476 25.3204 69.6057 27.6908C71.095 25.2365 72.2802 22.7822 73.1613 20.3279C74.0423 17.8526 74.4828 15.5976 74.4828 13.5629C74.4828 11.9686 74.1891 11.1715 73.6018 11.1715ZM87.7351 30.6171C88.0078 30.6171 88.2176 30.743 88.3645 30.9947C88.5323 31.2464 88.6162 31.5925 88.6162 32.033C88.6162 32.8721 88.4169 33.5224 88.0183 33.9839C87.1163 35.0957 86.1304 36.0082 85.0606 36.7214C84.0117 37.4346 82.8161 37.7912 81.4735 37.7912C79.6276 37.7912 78.2536 36.9521 77.3516 35.274C76.4705 33.5958 76.03 31.4247 76.03 28.7606C76.03 26.2015 76.3552 23.2857 77.0055 20.0133C77.6767 16.7409 78.6521 13.93 79.9317 11.5806C81.2323 9.23114 82.7741 8.05643 84.5571 8.05643C85.564 8.05643 86.3507 8.52841 86.917 9.47237C87.5044 10.3954 87.7981 11.7274 87.7981 13.4685C87.7981 15.9647 87.1058 18.8595 85.7214 22.1529C84.3369 25.4463 82.4595 28.7082 80.0891 31.9386C80.2359 32.7987 80.4771 33.4175 80.8128 33.7951C81.1484 34.1517 81.5889 34.33 82.1343 34.33C82.9944 34.33 83.7495 34.0888 84.3998 33.6063C85.0501 33.1029 85.8787 32.2533 86.8856 31.0576C87.1373 30.7639 87.4205 30.6171 87.7351 30.6171ZM83.8649 11.1715C83.3824 11.1715 82.837 12.042 82.2287 13.7831C81.6204 15.5242 81.0855 17.6848 80.624 20.265C80.1625 22.8452 79.9108 25.3204 79.8688 27.6908C81.3582 25.2365 82.5434 22.7822 83.4244 20.3279C84.3054 17.8526 84.7459 15.5976 84.7459 13.5629C84.7459 11.9686 84.4523 11.1715 83.8649 11.1715ZM88.3069 37.7912C87.5098 37.7912 86.9434 37.3717 86.6078 36.5326C86.2931 35.6935 86.1358 34.351 86.1358 32.505C86.1358 29.778 86.5239 27.1874 87.3 24.7331C87.4888 24.1247 87.793 23.6842 88.2125 23.4115C88.6531 23.1179 89.2614 22.971 90.0375 22.971C90.4571 22.971 90.7507 23.0235 90.9186 23.1283C91.0864 23.2332 91.1703 23.4325 91.1703 23.7262C91.1703 24.0618 91.013 24.817 90.6983 25.9917C90.4885 26.8308 90.3207 27.565 90.1949 28.1943C90.069 28.8236 89.9641 29.5997 89.8802 30.5227C90.5724 28.7187 91.3486 27.2503 92.2086 26.1176C93.0687 24.9848 93.9078 24.1772 94.7259 23.6947C95.5649 23.2123 96.3306 22.971 97.0228 22.971C98.3863 22.971 99.0681 23.6528 99.0681 25.0163C99.0681 25.8344 98.8373 27.3132 98.3759 29.4529C97.9773 31.2779 97.778 32.484 97.778 33.0714C97.778 33.9105 98.0822 34.33 98.6905 34.33C99.11 34.33 99.603 34.0783 100.169 33.5748C100.757 33.0504 101.533 32.2113 102.498 31.0576C102.75 30.7639 103.033 30.6171 103.347 30.6171C103.62 30.6171 103.83 30.743 103.977 30.9947C104.145 31.2464 104.228 31.5925 104.228 32.033C104.228 32.8721 104.029 33.5224 103.631 33.9839C102.729 35.0957 101.753 36.0082 100.704 36.7214C99.6764 37.4346 98.5017 37.7912 97.1802 37.7912C96.1103 37.7912 95.3027 37.487 94.7573 36.8787C94.2119 36.2494 93.9392 35.3474 93.9392 34.1727C93.9392 33.5853 94.0861 32.5365 94.3797 31.0262C94.6524 29.7046 94.7888 28.7921 94.7888 28.2887C94.7888 27.953 94.6734 27.7852 94.4427 27.7852C94.17 27.7852 93.7819 28.1418 93.2785 28.855C92.796 29.5473 92.2925 30.4703 91.7681 31.624C91.2647 32.7777 90.8556 33.9944 90.541 35.274C90.3102 36.2599 90.0375 36.9312 89.7229 37.2878C89.4292 37.6234 88.9572 37.7912 88.3069 37.7912ZM115.716 30.6171C115.989 30.6171 116.199 30.743 116.346 30.9947C116.513 31.2464 116.597 31.5925 116.597 32.033C116.597 32.8721 116.398 33.5224 115.999 33.9839C115.223 34.9279 114.122 35.7984 112.696 36.5955C111.29 37.3926 109.78 37.7912 108.165 37.7912C105.962 37.7912 104.252 37.1934 103.036 35.9977C101.819 34.802 101.211 33.1658 101.211 31.0891C101.211 29.6417 101.515 28.2992 102.123 27.0615C102.732 25.8029 103.571 24.8065 104.64 24.0723C105.731 23.3381 106.958 22.971 108.322 22.971C109.539 22.971 110.514 23.3381 111.248 24.0723C111.982 24.7855 112.349 25.7609 112.349 26.9986C112.349 28.446 111.825 29.6941 110.776 30.743C109.748 31.7708 107.997 32.5889 105.521 33.1973C106.046 34.1622 107.042 34.6447 108.511 34.6447C109.455 34.6447 110.524 34.3195 111.72 33.6692C112.937 32.998 113.986 32.1274 114.867 31.0576C115.118 30.7639 115.402 30.6171 115.716 30.6171ZM107.787 26.0546C107.011 26.0546 106.35 26.5056 105.805 27.4076C105.28 28.3096 105.018 29.4004 105.018 30.68V30.743C106.256 30.4493 107.231 30.0088 107.944 29.4214C108.657 28.8341 109.014 28.1523 109.014 27.3762C109.014 26.9776 108.899 26.663 108.668 26.4322C108.458 26.1805 108.165 26.0546 107.787 26.0546ZM119.888 38.4834C118.797 38.4834 117.958 38.2317 117.371 37.7283C116.804 37.2248 116.521 36.6585 116.521 36.0291C116.521 35.4837 116.72 35.0118 117.119 34.6132C117.517 34.2146 118.105 34.0154 118.881 34.0154C119.154 34.0154 119.468 34.0468 119.825 34.1098C120.202 34.1517 120.486 34.1832 120.674 34.2042C120.653 33.6588 120.528 33.1448 120.297 32.6624C120.087 32.1799 119.814 31.7184 119.479 31.2779C119.143 30.8164 118.829 30.4178 118.535 30.0822C117.885 31.3198 117.234 32.3477 116.584 33.1658C115.955 33.9839 115.262 34.76 114.507 35.4942C114.13 35.8718 113.731 36.0606 113.312 36.0606C112.976 36.0606 112.703 35.9452 112.493 35.7145C112.284 35.4628 112.179 35.1586 112.179 34.802C112.179 34.3825 112.326 33.9944 112.619 33.6378L113.028 33.1343C114.182 31.7079 115.053 30.5332 115.64 29.6102C115.997 29.0019 116.416 28.1943 116.899 27.1874C117.381 26.1595 117.853 25.1002 118.315 24.0094C118.713 23.0864 119.542 22.6249 120.8 22.6249C121.388 22.6249 121.797 22.6773 122.027 22.7822C122.258 22.8871 122.374 23.0549 122.374 23.2857C122.374 23.4115 122.332 23.6108 122.248 23.8835C122.164 24.1562 122.048 24.4289 121.902 24.7016C121.524 25.4568 121.335 26.0966 121.335 26.621C121.335 26.9357 121.44 27.2818 121.65 27.6594C121.881 28.0369 122.227 28.5089 122.688 29.0753C123.36 29.9563 123.863 30.7115 124.199 31.3408C124.555 31.9491 124.734 32.6204 124.734 33.3546C124.734 33.5644 124.713 33.858 124.671 34.2356C125.698 33.8371 126.905 32.7777 128.289 31.0576C128.541 30.7639 128.824 30.6171 129.139 30.6171C129.411 30.6171 129.621 30.743 129.768 30.9947C129.936 31.2464 130.02 31.5925 130.02 32.033C130.02 32.8302 129.82 33.4805 129.422 33.9839C128.373 35.2845 127.366 36.176 126.401 36.6585C125.457 37.1199 124.283 37.3717 122.877 37.4136C122.038 38.1268 121.042 38.4834 119.888 38.4834ZM133.316 38.4834C132.225 38.4834 131.386 38.2317 130.799 37.7283C130.232 37.2248 129.949 36.6585 129.949 36.0291C129.949 35.4837 130.148 35.0118 130.547 34.6132C130.946 34.2146 131.533 34.0154 132.309 34.0154C132.582 34.0154 132.896 34.0468 133.253 34.1098C133.631 34.1517 133.914 34.1832 134.103 34.2042C134.082 33.6588 133.956 33.1448 133.725 32.6624C133.515 32.1799 133.243 31.7184 132.907 31.2779C132.571 30.8164 132.257 30.4178 131.963 30.0822C131.313 31.3198 130.662 32.3477 130.012 33.1658C129.383 33.9839 128.691 34.76 127.935 35.4942C127.558 35.8718 127.159 36.0606 126.74 36.0606C126.404 36.0606 126.131 35.9452 125.922 35.7145C125.712 35.4628 125.607 35.1586 125.607 34.802C125.607 34.3825 125.754 33.9944 126.047 33.6378L126.456 33.1343C127.61 31.7079 128.481 30.5332 129.068 29.6102C129.446 29.0019 129.823 28.2782 130.201 27.4391C130.599 26.6 131.113 25.4568 131.743 24.0094C132.141 23.0864 132.97 22.6249 134.228 22.6249C134.816 22.6249 135.225 22.6773 135.456 22.7822C135.686 22.8871 135.802 23.0549 135.802 23.2857C135.802 23.4115 135.76 23.6108 135.676 23.8835C135.592 24.1562 135.477 24.4289 135.33 24.7016C134.952 25.4568 134.763 26.0966 134.763 26.621C134.763 26.9357 134.868 27.2818 135.078 27.6594C135.309 28.0369 135.655 28.5089 136.116 29.0753C136.788 29.9563 137.291 30.7115 137.627 31.3408C137.983 31.9491 138.162 32.6204 138.162 33.3546C138.162 34.2356 137.952 35.0747 137.532 35.8718C137.134 36.648 136.567 37.2773 135.833 37.7597C135.099 38.2422 134.26 38.4834 133.316 38.4834ZM174.573 11.5491C175.161 11.633 175.559 11.8113 175.769 12.084C176 12.3567 176.115 12.7133 176.115 13.1538C176.115 14.6012 175.339 15.2725 173.787 15.1676L172.685 15.0732C171.448 14.9683 170.21 14.8844 168.973 14.8215C167.756 14.7586 166.476 14.7271 165.134 14.7271H163.718C163.466 17.8317 163.204 20.6636 162.931 23.2227L168.343 23.1283C169.119 23.1283 169.633 23.2647 169.885 23.5374C170.158 23.8101 170.294 24.1772 170.294 24.6387C170.294 25.3519 170.084 25.9183 169.665 26.3378C169.245 26.7364 168.647 26.9357 167.871 26.9357H162.491L162.302 28.2887C161.861 31.7499 160.917 34.2146 159.47 35.683C158.044 37.1514 156.072 37.8856 153.555 37.8856C152.128 37.8856 150.817 37.5814 149.621 36.9731C148.426 36.3438 147.545 35.5886 146.978 34.7076C146.748 34.351 146.632 33.921 146.632 33.4175C146.632 32.9141 146.748 32.4736 146.978 32.096C147.23 31.7184 147.534 31.5296 147.891 31.5296C148.143 31.5296 148.384 31.6135 148.614 31.7813C148.866 31.9491 149.181 32.2743 149.558 32.7567C150.565 34.0783 151.813 34.7391 153.303 34.7391C154.499 34.7391 155.495 34.2566 156.292 33.2917C157.11 32.3057 157.635 30.7639 157.865 28.6662L158.054 26.9357H156.544C156.061 26.9357 155.642 26.7993 155.285 26.5266C154.95 26.2539 154.782 25.8658 154.782 25.3624C154.782 24.7121 154.95 24.2191 155.285 23.8835C155.621 23.5269 156.114 23.3486 156.764 23.3486C157.351 23.3486 157.928 23.3381 158.495 23.3171C158.746 21.0097 159.019 18.2093 159.313 14.9159C157.047 15.1257 155.453 15.4927 154.53 16.0172C153.607 16.5416 153.146 17.3177 153.146 18.3456C153.146 19.0588 153.355 19.7406 153.775 20.3909C153.901 20.5796 153.964 20.7684 153.964 20.9572C153.964 21.3348 153.754 21.6704 153.334 21.9641C152.915 22.2368 152.443 22.3732 151.918 22.3732C151.352 22.3732 150.87 22.2054 150.471 21.8697C150.219 21.66 149.978 21.2299 149.747 20.5796C149.516 19.9294 149.401 19.2057 149.401 18.4085C149.401 15.8074 150.733 13.9195 153.397 12.7448C156.082 11.5701 159.994 10.9827 165.134 10.9827C168.7 10.9827 171.846 11.1715 174.573 11.5491ZM174.697 20.8943C173.816 20.8943 173.155 20.695 172.714 20.2965C172.274 19.8769 172.053 19.3001 172.053 18.5659C172.053 17.8317 172.337 17.2233 172.903 16.7409C173.49 16.2374 174.214 15.9857 175.074 15.9857C175.85 15.9857 176.48 16.1745 176.962 16.5521C177.445 16.9297 177.686 17.4646 177.686 18.1568C177.686 18.9959 177.413 19.6672 176.868 20.1706C176.322 20.6531 175.599 20.8943 174.697 20.8943ZM174.445 37.7912C173.081 37.7912 172.085 37.3087 171.456 36.3438C170.847 35.3789 170.543 34.0993 170.543 32.505C170.543 31.5611 170.659 30.3549 170.889 28.8865C171.141 27.3971 171.456 26.0127 171.833 24.7331C172.022 24.0618 172.274 23.6003 172.588 23.3486C172.903 23.0969 173.407 22.971 174.099 22.971C175.169 22.971 175.703 23.3276 175.703 24.0408C175.703 24.5653 175.504 25.7819 175.106 27.6908C174.602 29.9983 174.35 31.5611 174.35 32.3792C174.35 33.0085 174.434 33.4909 174.602 33.8266C174.77 34.1622 175.053 34.33 175.452 34.33C175.829 34.33 176.301 34.0678 176.868 33.5434C177.434 33.019 178.189 32.1904 179.133 31.0576C179.385 30.7639 179.668 30.6171 179.983 30.6171C180.255 30.6171 180.465 30.743 180.612 30.9947C180.78 31.2464 180.864 31.5925 180.864 32.033C180.864 32.8721 180.665 33.5224 180.266 33.9839C178.189 36.5221 176.249 37.7912 174.445 37.7912ZM180.552 37.7912C179.755 37.7912 179.189 37.3717 178.853 36.5326C178.538 35.6935 178.381 34.351 178.381 32.505C178.381 29.778 178.769 27.1874 179.545 24.7331C179.734 24.1247 180.038 23.6842 180.458 23.4115C180.898 23.1179 181.507 22.971 182.283 22.971C182.702 22.971 182.996 23.0235 183.164 23.1283C183.332 23.2332 183.415 23.4325 183.415 23.7262C183.415 24.0618 183.258 24.817 182.943 25.9917C182.734 26.8308 182.566 27.565 182.44 28.1943C182.314 28.8236 182.209 29.5997 182.125 30.5227C182.818 28.7187 183.594 27.2503 184.454 26.1176C185.314 24.9848 186.153 24.1772 186.971 23.6947C187.81 23.2123 188.576 22.971 189.268 22.971C190.631 22.971 191.313 23.6528 191.313 25.0163C191.313 25.8344 191.082 27.3132 190.621 29.4529C190.222 31.2779 190.023 32.484 190.023 33.0714C190.023 33.9105 190.327 34.33 190.936 34.33C191.355 34.33 191.848 34.0783 192.415 33.5748C193.002 33.0504 193.778 32.2113 194.743 31.0576C194.995 30.7639 195.278 30.6171 195.593 30.6171C195.865 30.6171 196.075 30.743 196.222 30.9947C196.39 31.2464 196.474 31.5925 196.474 32.033C196.474 32.8721 196.274 33.5224 195.876 33.9839C194.974 35.0957 193.998 36.0082 192.949 36.7214C191.922 37.4346 190.747 37.7912 189.425 37.7912C188.356 37.7912 187.548 37.487 187.002 36.8787C186.457 36.2494 186.184 35.3474 186.184 34.1727C186.184 33.5853 186.331 32.5365 186.625 31.0262C186.898 29.7046 187.034 28.7921 187.034 28.2887C187.034 27.953 186.919 27.7852 186.688 27.7852C186.415 27.7852 186.027 28.1418 185.524 28.855C185.041 29.5473 184.538 30.4703 184.013 31.624C183.51 32.7777 183.101 33.9944 182.786 35.274C182.555 36.2599 182.283 36.9312 181.968 37.2878C181.674 37.6234 181.202 37.7912 180.552 37.7912ZM211.8 30.6171C212.073 30.6171 212.283 30.743 212.429 30.9947C212.597 31.2464 212.681 31.5925 212.681 32.033C212.681 32.8721 212.482 33.5224 212.083 33.9839C211.223 35.0327 210.279 35.9348 209.251 36.6899C208.224 37.4241 207.206 37.7912 206.199 37.7912C204.605 37.7912 203.388 36.8577 202.549 34.9908C201.668 36.1026 200.892 36.8472 200.221 37.2248C199.571 37.6024 198.805 37.7912 197.924 37.7912C196.644 37.7912 195.585 37.3192 194.746 36.3753C193.928 35.4103 193.519 34.1622 193.519 32.6309C193.519 30.9527 193.875 29.4004 194.589 27.974C195.302 26.5266 196.277 25.3519 197.515 24.4499C198.774 23.5269 200.179 22.9815 201.731 22.8137C202.13 18.7442 202.885 15.2725 203.997 12.3987C205.13 9.50384 206.608 8.05643 208.433 8.05643C209.335 8.05643 210.08 8.46548 210.667 9.28358C211.276 10.1017 211.58 11.3393 211.58 12.9965C211.58 15.3459 211.003 18.0939 209.849 21.2404C208.696 24.387 207.154 27.6174 205.224 30.9318C205.308 32.1484 205.486 33.019 205.759 33.5434C206.052 34.0678 206.42 34.33 206.86 34.33C207.426 34.33 208.003 34.0783 208.591 33.5748C209.178 33.0714 209.965 32.2323 210.951 31.0576C211.202 30.7639 211.486 30.6171 211.8 30.6171ZM208.087 11.14C207.689 11.14 207.29 11.8533 206.892 13.2797C206.493 14.6851 206.147 16.5311 205.853 18.8176C205.581 21.1041 205.381 23.4954 205.255 25.9917C207.605 20.8733 208.779 16.7618 208.779 13.6573C208.779 12.8601 208.706 12.2413 208.559 11.8008C208.433 11.3603 208.276 11.14 208.087 11.14ZM199.025 34.6132C199.424 34.6132 199.822 34.4559 200.221 34.1412C200.619 33.8056 201.123 33.1973 201.731 32.3162C201.521 31.1835 201.417 29.9144 201.417 28.5089C201.417 28.0055 201.438 27.1874 201.48 26.0546C200.326 26.4112 199.361 27.1874 198.585 28.3831C197.83 29.5578 197.452 30.8688 197.452 32.3162C197.452 33.8475 197.976 34.6132 199.025 34.6132ZM224.155 30.6171C224.428 30.6171 224.637 30.743 224.784 30.9947C224.952 31.2464 225.036 31.5925 225.036 32.033C225.036 32.8721 224.837 33.5224 224.438 33.9839C223.662 34.9279 222.561 35.7984 221.134 36.5955C219.729 37.3926 218.219 37.7912 216.603 37.7912C214.401 37.7912 212.691 37.1934 211.474 35.9977C210.258 34.802 209.649 33.1658 209.649 31.0891C209.649 29.6417 209.954 28.2992 210.562 27.0615C211.17 25.8029 212.009 24.8065 213.079 24.0723C214.17 23.3381 215.397 22.971 216.761 22.971C217.977 22.971 218.953 23.3381 219.687 24.0723C220.421 24.7855 220.788 25.7609 220.788 26.9986C220.788 28.446 220.264 29.6941 219.215 30.743C218.187 31.7708 216.435 32.5889 213.96 33.1973C214.485 34.1622 215.481 34.6447 216.949 34.6447C217.893 34.6447 218.963 34.3195 220.159 33.6692C221.376 32.998 222.424 32.1274 223.305 31.0576C223.557 30.7639 223.84 30.6171 224.155 30.6171ZM216.226 26.0546C215.45 26.0546 214.789 26.5056 214.243 27.4076C213.719 28.3096 213.457 29.4004 213.457 30.68V30.743C214.694 30.4493 215.67 30.0088 216.383 29.4214C217.096 28.8341 217.453 28.1523 217.453 27.3762C217.453 26.9776 217.337 26.663 217.107 26.4322C216.897 26.1805 216.603 26.0546 216.226 26.0546ZM235.186 27.2818C235.648 27.2818 236.036 27.4496 236.35 27.7852C236.686 28.0999 236.854 28.4984 236.854 28.9809C236.854 29.2536 236.791 29.5473 236.665 29.8619C236.329 30.6381 235.857 31.2884 235.249 31.8128C234.641 32.3372 233.969 32.5994 233.235 32.5994C232.648 32.5994 232.144 32.3897 231.725 31.9701C231.326 31.5506 231.127 30.9842 231.127 30.271C231.127 29.8724 231.148 29.4424 231.19 28.9809C231.232 28.6453 231.253 28.4145 231.253 28.2887C231.253 28.1208 231.211 27.995 231.127 27.9111C231.064 27.8272 230.98 27.7852 230.875 27.7852C230.582 27.7852 230.183 28.1418 229.68 28.855C229.176 29.5473 228.673 30.4703 228.169 31.624C227.666 32.7777 227.257 33.9944 226.942 35.274C226.711 36.2809 226.449 36.9521 226.156 37.2878C225.862 37.6234 225.379 37.7912 224.708 37.7912C223.911 37.7912 223.345 37.3717 223.009 36.5326C222.694 35.6935 222.537 34.351 222.537 32.505C222.537 29.778 222.925 27.1874 223.701 24.7331C223.89 24.1247 224.194 23.6842 224.614 23.4115C225.054 23.1179 225.663 22.971 226.439 22.971C226.858 22.971 227.152 23.0235 227.32 23.1283C227.488 23.2332 227.571 23.4325 227.571 23.7262C227.571 24.0618 227.414 24.817 227.099 25.9917C226.89 26.8308 226.722 27.565 226.596 28.1943C226.47 28.8236 226.365 29.5997 226.281 30.5227C226.974 28.7187 227.75 27.2503 228.61 26.1176C229.47 24.9848 230.309 24.1772 231.127 23.6947C231.945 23.2123 232.69 22.971 233.361 22.971C233.969 22.971 234.431 23.1493 234.746 23.5059C235.081 23.8416 235.249 24.345 235.249 25.0163C235.249 25.4148 235.134 26.17 234.903 27.2818H235.186Z" fill="#0D3455"/>
</svg>
