<svg width="682" height="93" viewBox="0 0 682 93" fill="none" xmlns="http://www.w3.org/2000/svg">
<path d="M126.528 48.768C128 48.768 129.056 49.088 129.696 49.728C130.4 50.368 130.752 51.2 130.752 52.224C130.752 53.888 130.24 55.36 129.216 56.64C128.256 57.92 126.72 58.592 124.608 58.656C119.552 58.72 115.008 58.336 110.976 57.504C106.496 67.04 101.088 74.976 94.752 81.312C88.48 87.584 82.272 90.72 76.128 90.72C70.496 90.72 66.272 87.744 63.456 81.792C60.64 75.776 59.04 67.744 58.656 57.696C54.816 68.832 50.464 77.12 45.6 82.56C40.8 88 35.68 90.72 30.24 90.72C24.096 90.72 19.456 86.912 16.32 79.296C13.184 71.616 11.616 61.312 11.616 48.384C11.616 38.976 12.448 28.64 14.112 17.376C14.56 14.176 15.36 11.968 16.512 10.752C17.728 9.47198 19.616 8.83199 22.176 8.83199C24.096 8.83199 25.568 9.24799 26.592 10.08C27.68 10.912 28.224 12.448 28.224 14.688C28.224 15.136 28.16 16 28.032 17.28C26.112 30.4 25.152 41.568 25.152 50.784C25.152 59.36 25.888 65.984 27.36 70.656C28.832 75.328 30.816 77.664 33.312 77.664C35.552 77.664 38.24 75.328 41.376 70.656C44.576 65.92 47.744 58.944 50.88 49.728C54.016 40.448 56.672 29.408 58.848 16.608C59.36 13.664 60.288 11.648 61.632 10.56C63.04 9.40799 64.928 8.83199 67.296 8.83199C69.28 8.83199 70.72 9.27999 71.616 10.176C72.576 11.008 73.056 12.288 73.056 14.016C73.056 15.04 72.992 15.84 72.864 16.416C71.072 26.848 70.176 37.28 70.176 47.712C70.176 54.816 70.4 60.48 70.848 64.704C71.36 68.928 72.288 72.16 73.632 74.4C75.04 76.576 77.056 77.664 79.68 77.664C82.752 77.664 86.176 75.36 89.952 70.752C93.728 66.08 97.184 60.288 100.32 53.376C96.416 50.944 93.472 47.808 91.488 43.968C89.504 40.064 88.512 35.584 88.512 30.528C88.512 25.472 89.28 21.216 90.816 17.76C92.416 14.24 94.56 11.616 97.248 9.88799C100 8.15999 103.04 7.29599 106.368 7.29599C110.464 7.29599 113.696 8.76799 116.064 11.712C118.496 14.656 119.712 18.688 119.712 23.808C119.712 31.04 118.144 39.072 115.008 47.904C118.272 48.48 122.112 48.768 126.528 48.768ZM98.208 29.856C98.208 36.128 100.224 40.768 104.256 43.776C106.752 36.608 108 30.688 108 26.016C108 23.328 107.648 21.376 106.944 20.16C106.24 18.88 105.28 18.24 104.064 18.24C102.336 18.24 100.928 19.264 99.84 21.312C98.752 23.296 98.208 26.144 98.208 29.856ZM164.237 68.832C165.069 68.832 165.709 69.216 166.156 69.984C166.669 70.752 166.925 71.808 166.925 73.152C166.925 75.712 166.317 77.696 165.101 79.104C162.733 81.984 159.373 84.64 155.021 87.072C150.733 89.504 146.125 90.72 141.197 90.72C134.477 90.72 129.261 88.896 125.549 85.248C121.837 81.6 119.98 76.608 119.98 70.272C119.98 65.856 120.909 61.76 122.765 57.984C124.621 54.144 127.181 51.104 130.445 48.864C133.773 46.624 137.517 45.504 141.677 45.504C145.389 45.504 148.365 46.624 150.605 48.864C152.845 51.04 153.965 54.016 153.965 57.792C153.965 62.208 152.365 66.016 149.165 69.216C146.029 72.352 140.685 74.848 133.133 76.704C134.733 79.648 137.773 81.12 142.253 81.12C145.133 81.12 148.397 80.128 152.045 78.144C155.757 76.096 158.957 73.44 161.645 70.176C162.413 69.28 163.277 68.832 164.237 68.832ZM140.045 54.912C137.677 54.912 135.661 56.288 133.997 59.04C132.397 61.792 131.597 65.12 131.597 69.024V69.216C135.373 68.32 138.349 66.976 140.525 65.184C142.701 63.392 143.789 61.312 143.789 58.944C143.789 57.728 143.437 56.768 142.733 56.064C142.093 55.296 141.197 54.912 140.045 54.912ZM195.492 68.832C196.324 68.832 196.964 69.216 197.412 69.984C197.924 70.752 198.18 71.808 198.18 73.152C198.18 75.712 197.572 77.696 196.356 79.104C193.604 82.496 190.596 85.28 187.332 87.456C184.132 89.632 180.484 90.72 176.388 90.72C170.756 90.72 166.564 88.16 163.812 83.04C161.124 77.92 159.78 71.296 159.78 63.168C159.78 55.36 160.772 46.464 162.756 36.48C164.804 26.496 167.78 17.92 171.684 10.752C175.652 3.58398 180.356 -1.52588e-05 185.796 -1.52588e-05C188.868 -1.52588e-05 191.268 1.43999 192.996 4.31999C194.788 7.13599 195.684 11.2 195.684 16.512C195.684 24.128 193.572 32.96 189.348 43.008C185.124 53.056 179.396 63.008 172.164 72.864C172.612 75.488 173.348 77.376 174.372 78.528C175.396 79.616 176.74 80.16 178.404 80.16C181.028 80.16 183.332 79.424 185.316 77.952C187.3 76.416 189.828 73.824 192.9 70.176C193.668 69.28 194.532 68.832 195.492 68.832ZM183.684 9.50399C182.212 9.50399 180.548 12.16 178.692 17.472C176.836 22.784 175.204 29.376 173.796 37.248C172.388 45.12 171.62 52.672 171.492 59.904C176.036 52.416 179.652 44.928 182.34 37.44C185.028 29.888 186.372 23.008 186.372 16.8C186.372 11.936 185.476 9.50399 183.684 9.50399ZM226.805 68.832C227.637 68.832 228.277 69.216 228.725 69.984C229.237 70.752 229.493 71.808 229.493 73.152C229.493 75.712 228.885 77.696 227.669 79.104C224.917 82.496 221.909 85.28 218.645 87.456C215.445 89.632 211.797 90.72 207.701 90.72C202.069 90.72 197.877 88.16 195.125 83.04C192.437 77.92 191.093 71.296 191.093 63.168C191.093 55.36 192.085 46.464 194.069 36.48C196.117 26.496 199.093 17.92 202.997 10.752C206.965 3.58398 211.669 -1.52588e-05 217.109 -1.52588e-05C220.181 -1.52588e-05 222.581 1.43999 224.309 4.31999C226.101 7.13599 226.997 11.2 226.997 16.512C226.997 24.128 224.885 32.96 220.661 43.008C216.437 53.056 210.709 63.008 203.477 72.864C203.925 75.488 204.661 77.376 205.685 78.528C206.709 79.616 208.053 80.16 209.717 80.16C212.341 80.16 214.645 79.424 216.629 77.952C218.613 76.416 221.141 73.824 224.213 70.176C224.981 69.28 225.845 68.832 226.805 68.832ZM214.997 9.50399C213.525 9.50399 211.861 12.16 210.005 17.472C208.149 22.784 206.517 29.376 205.109 37.248C203.701 45.12 202.933 52.672 202.805 59.904C207.349 52.416 210.965 44.928 213.653 37.44C216.341 29.888 217.685 23.008 217.685 16.8C217.685 11.936 216.789 9.50399 214.997 9.50399ZM228.549 90.72C226.117 90.72 224.389 89.44 223.365 86.88C222.405 84.32 221.925 80.224 221.925 74.592C221.925 66.272 223.109 58.368 225.477 50.88C226.053 49.024 226.981 47.68 228.261 46.848C229.605 45.952 231.461 45.504 233.829 45.504C235.109 45.504 236.005 45.664 236.517 45.984C237.029 46.304 237.285 46.912 237.285 47.808C237.285 48.832 236.805 51.136 235.845 54.72C235.205 57.28 234.693 59.52 234.309 61.44C233.925 63.36 233.605 65.728 233.349 68.544C235.461 63.04 237.829 58.56 240.453 55.104C243.077 51.648 245.637 49.184 248.133 47.712C250.693 46.24 253.029 45.504 255.141 45.504C259.301 45.504 261.381 47.584 261.381 51.744C261.381 54.24 260.677 58.752 259.269 65.28C258.053 70.848 257.445 74.528 257.445 76.32C257.445 78.88 258.373 80.16 260.229 80.16C261.509 80.16 263.013 79.392 264.741 77.856C266.533 76.256 268.901 73.696 271.845 70.176C272.613 69.28 273.477 68.832 274.437 68.832C275.269 68.832 275.909 69.216 276.357 69.984C276.869 70.752 277.125 71.808 277.125 73.152C277.125 75.712 276.517 77.696 275.301 79.104C272.549 82.496 269.573 85.28 266.373 87.456C263.237 89.632 259.653 90.72 255.621 90.72C252.357 90.72 249.893 89.792 248.229 87.936C246.565 86.016 245.733 83.264 245.733 79.68C245.733 77.888 246.181 74.688 247.077 70.08C247.909 66.048 248.325 63.264 248.325 61.728C248.325 60.704 247.973 60.192 247.269 60.192C246.437 60.192 245.253 61.28 243.717 63.456C242.245 65.568 240.709 68.384 239.109 71.904C237.573 75.424 236.325 79.136 235.365 83.04C234.661 86.048 233.829 88.096 232.869 89.184C231.973 90.208 230.533 90.72 228.549 90.72ZM312.174 68.832C313.006 68.832 313.646 69.216 314.094 69.984C314.606 70.752 314.862 71.808 314.862 73.152C314.862 75.712 314.254 77.696 313.038 79.104C310.67 81.984 307.31 84.64 302.958 87.072C298.67 89.504 294.062 90.72 289.134 90.72C282.414 90.72 277.198 88.896 273.486 85.248C269.774 81.6 267.918 76.608 267.918 70.272C267.918 65.856 268.846 61.76 270.702 57.984C272.558 54.144 275.118 51.104 278.382 48.864C281.71 46.624 285.454 45.504 289.614 45.504C293.326 45.504 296.302 46.624 298.542 48.864C300.782 51.04 301.902 54.016 301.902 57.792C301.902 62.208 300.302 66.016 297.102 69.216C293.966 72.352 288.622 74.848 281.07 76.704C282.67 79.648 285.71 81.12 290.19 81.12C293.07 81.12 296.334 80.128 299.982 78.144C303.694 76.096 306.894 73.44 309.582 70.176C310.35 69.28 311.214 68.832 312.174 68.832ZM287.982 54.912C285.614 54.912 283.598 56.288 281.934 59.04C280.334 61.792 279.534 65.12 279.534 69.024V69.216C283.31 68.32 286.286 66.976 288.462 65.184C290.638 63.392 291.726 61.312 291.726 58.944C291.726 57.728 291.374 56.768 290.67 56.064C290.03 55.296 289.134 54.912 287.982 54.912ZM324.902 92.832C321.574 92.832 319.014 92.064 317.222 90.528C315.494 88.992 314.63 87.264 314.63 85.344C314.63 83.68 315.238 82.24 316.454 81.024C317.67 79.808 319.462 79.2 321.83 79.2C322.662 79.2 323.622 79.296 324.71 79.488C325.862 79.616 326.726 79.712 327.302 79.776C327.238 78.112 326.854 76.544 326.15 75.072C325.51 73.6 324.678 72.192 323.654 70.848C322.63 69.44 321.67 68.224 320.774 67.2C318.79 70.976 316.806 74.112 314.822 76.608C312.902 79.104 310.79 81.472 308.486 83.712C307.334 84.864 306.118 85.44 304.838 85.44C303.814 85.44 302.982 85.088 302.341 84.384C301.701 83.616 301.381 82.688 301.381 81.6C301.381 80.32 301.829 79.136 302.726 78.048L303.974 76.512C307.494 72.16 310.15 68.576 311.942 65.76C313.03 63.904 314.31 61.44 315.782 58.368C317.254 55.232 318.694 52 320.102 48.672C321.318 45.856 323.846 44.448 327.686 44.448C329.478 44.448 330.726 44.608 331.43 44.928C332.134 45.248 332.486 45.76 332.486 46.464C332.486 46.848 332.358 47.456 332.102 48.288C331.846 49.12 331.494 49.952 331.046 50.784C329.894 53.088 329.318 55.04 329.318 56.64C329.318 57.6 329.638 58.656 330.278 59.808C330.982 60.96 332.038 62.4 333.446 64.128C335.494 66.816 337.03 69.12 338.054 71.04C339.142 72.896 339.686 74.944 339.686 77.184C339.686 77.824 339.622 78.72 339.494 79.872C342.63 78.656 346.31 75.424 350.534 70.176C351.302 69.28 352.166 68.832 353.125 68.832C353.958 68.832 354.598 69.216 355.046 69.984C355.558 70.752 355.814 71.808 355.814 73.152C355.814 75.584 355.206 77.568 353.99 79.104C350.79 83.072 347.718 85.792 344.774 87.264C341.894 88.672 338.31 89.44 334.022 89.568C331.462 91.744 328.422 92.832 324.902 92.832ZM365.87 92.832C362.542 92.832 359.982 92.064 358.19 90.528C356.462 88.992 355.598 87.264 355.598 85.344C355.598 83.68 356.206 82.24 357.422 81.024C358.638 79.808 360.43 79.2 362.798 79.2C363.63 79.2 364.59 79.296 365.678 79.488C366.83 79.616 367.694 79.712 368.27 79.776C368.206 78.112 367.822 76.544 367.118 75.072C366.478 73.6 365.646 72.192 364.622 70.848C363.598 69.44 362.638 68.224 361.742 67.2C359.758 70.976 357.774 74.112 355.79 76.608C353.87 79.104 351.758 81.472 349.454 83.712C348.302 84.864 347.086 85.44 345.806 85.44C344.782 85.44 343.95 85.088 343.31 84.384C342.67 83.616 342.35 82.688 342.35 81.6C342.35 80.32 342.798 79.136 343.694 78.048L344.942 76.512C348.462 72.16 351.118 68.576 352.91 65.76C354.062 63.904 355.214 61.696 356.366 59.136C357.582 56.576 359.15 53.088 361.07 48.672C362.286 45.856 364.814 44.448 368.654 44.448C370.446 44.448 371.694 44.608 372.398 44.928C373.102 45.248 373.454 45.76 373.454 46.464C373.454 46.848 373.326 47.456 373.07 48.288C372.814 49.12 372.462 49.952 372.014 50.784C370.862 53.088 370.286 55.04 370.286 56.64C370.286 57.6 370.606 58.656 371.246 59.808C371.95 60.96 373.006 62.4 374.414 64.128C376.462 66.816 377.998 69.12 379.022 71.04C380.11 72.896 380.654 74.944 380.654 77.184C380.654 79.872 380.014 82.432 378.734 84.864C377.518 87.232 375.79 89.152 373.55 90.624C371.31 92.096 368.75 92.832 365.87 92.832ZM491.746 10.656C493.538 10.912 494.754 11.456 495.394 12.288C496.098 13.12 496.45 14.208 496.45 15.552C496.45 19.968 494.082 22.016 489.346 21.696L485.986 21.408C482.21 21.088 478.434 20.832 474.658 20.64C470.946 20.448 467.042 20.352 462.946 20.352H458.626C457.858 29.824 457.058 38.464 456.226 46.272L472.738 45.984C475.106 45.984 476.674 46.4 477.442 47.232C478.274 48.064 478.69 49.184 478.69 50.592C478.69 52.768 478.05 54.496 476.77 55.776C475.49 56.992 473.666 57.6 471.298 57.6H454.882L454.306 61.728C452.962 72.288 450.082 79.808 445.666 84.288C441.314 88.768 435.298 91.008 427.618 91.008C423.266 91.008 419.266 90.08 415.618 88.224C411.97 86.304 409.282 84 407.554 81.312C406.85 80.224 406.498 78.912 406.498 77.376C406.498 75.84 406.85 74.496 407.554 73.344C408.322 72.192 409.25 71.616 410.338 71.616C411.106 71.616 411.842 71.872 412.546 72.384C413.314 72.896 414.274 73.888 415.426 75.36C418.498 79.392 422.306 81.408 426.85 81.408C430.498 81.408 433.538 79.936 435.97 76.992C438.466 73.984 440.066 69.28 440.77 62.88L441.346 57.6H436.738C435.266 57.6 433.986 57.184 432.898 56.352C431.874 55.52 431.362 54.336 431.362 52.8C431.362 50.816 431.874 49.312 432.898 48.288C433.922 47.2 435.426 46.656 437.41 46.656C439.202 46.656 440.962 46.624 442.69 46.56C443.458 39.52 444.29 30.976 445.186 20.928C438.274 21.568 433.41 22.688 430.594 24.288C427.778 25.888 426.37 28.256 426.37 31.392C426.37 33.568 427.01 35.648 428.29 37.632C428.674 38.208 428.866 38.784 428.866 39.36C428.866 40.512 428.226 41.536 426.946 42.432C425.666 43.264 424.226 43.68 422.626 43.68C420.898 43.68 419.426 43.168 418.21 42.144C417.442 41.504 416.706 40.192 416.002 38.208C415.298 36.224 414.946 34.016 414.946 31.584C414.946 23.648 419.01 17.888 427.138 14.304C435.33 10.72 447.266 8.92798 462.946 8.92798C473.826 8.92798 483.426 9.50398 491.746 10.656ZM492.122 39.168C489.434 39.168 487.418 38.56 486.074 37.344C484.73 36.064 484.058 34.304 484.058 32.064C484.058 29.824 484.922 27.968 486.65 26.496C488.442 24.96 490.65 24.192 493.274 24.192C495.642 24.192 497.562 24.768 499.034 25.92C500.506 27.072 501.242 28.704 501.242 30.816C501.242 33.376 500.41 35.424 498.746 36.96C497.082 38.432 494.874 39.168 492.122 39.168ZM491.354 90.72C487.194 90.72 484.154 89.248 482.234 86.304C480.378 83.36 479.45 79.456 479.45 74.592C479.45 71.712 479.802 68.032 480.506 63.552C481.274 59.008 482.234 54.784 483.386 50.88C483.962 48.832 484.73 47.424 485.69 46.656C486.65 45.888 488.186 45.504 490.298 45.504C493.562 45.504 495.194 46.592 495.194 48.768C495.194 50.368 494.586 54.08 493.37 59.904C491.834 66.944 491.066 71.712 491.066 74.208C491.066 76.128 491.322 77.6 491.834 78.624C492.346 79.648 493.21 80.16 494.426 80.16C495.578 80.16 497.018 79.36 498.746 77.76C500.474 76.16 502.778 73.632 505.658 70.176C506.426 69.28 507.29 68.832 508.25 68.832C509.082 68.832 509.722 69.216 510.17 69.984C510.682 70.752 510.938 71.808 510.938 73.152C510.938 75.712 510.33 77.696 509.114 79.104C502.778 86.848 496.858 90.72 491.354 90.72ZM509.987 90.72C507.555 90.72 505.827 89.44 504.803 86.88C503.843 84.32 503.363 80.224 503.363 74.592C503.363 66.272 504.547 58.368 506.915 50.88C507.491 49.024 508.419 47.68 509.699 46.848C511.043 45.952 512.899 45.504 515.267 45.504C516.547 45.504 517.443 45.664 517.955 45.984C518.467 46.304 518.723 46.912 518.723 47.808C518.723 48.832 518.243 51.136 517.283 54.72C516.643 57.28 516.131 59.52 515.747 61.44C515.363 63.36 515.043 65.728 514.787 68.544C516.899 63.04 519.267 58.56 521.891 55.104C524.515 51.648 527.075 49.184 529.571 47.712C532.131 46.24 534.467 45.504 536.579 45.504C540.739 45.504 542.819 47.584 542.819 51.744C542.819 54.24 542.115 58.752 540.707 65.28C539.491 70.848 538.883 74.528 538.883 76.32C538.883 78.88 539.811 80.16 541.667 80.16C542.947 80.16 544.451 79.392 546.179 77.856C547.971 76.256 550.339 73.696 553.283 70.176C554.051 69.28 554.915 68.832 555.875 68.832C556.707 68.832 557.347 69.216 557.795 69.984C558.307 70.752 558.562 71.808 558.562 73.152C558.562 75.712 557.955 77.696 556.739 79.104C553.987 82.496 551.011 85.28 547.811 87.456C544.675 89.632 541.091 90.72 537.059 90.72C533.795 90.72 531.331 89.792 529.667 87.936C528.003 86.016 527.171 83.264 527.171 79.68C527.171 77.888 527.619 74.688 528.515 70.08C529.347 66.048 529.763 63.264 529.763 61.728C529.763 60.704 529.411 60.192 528.707 60.192C527.875 60.192 526.691 61.28 525.155 63.456C523.683 65.568 522.147 68.384 520.547 71.904C519.011 75.424 517.763 79.136 516.803 83.04C516.099 86.048 515.267 88.096 514.307 89.184C513.411 90.208 511.971 90.72 509.987 90.72ZM605.324 68.832C606.156 68.832 606.796 69.216 607.244 69.984C607.756 70.752 608.012 71.808 608.012 73.152C608.012 75.712 607.404 77.696 606.188 79.104C603.564 82.304 600.684 85.056 597.548 87.36C594.412 89.6 591.308 90.72 588.236 90.72C583.372 90.72 579.66 87.872 577.1 82.176C574.412 85.568 572.044 87.84 569.996 88.992C568.012 90.144 565.676 90.72 562.988 90.72C559.084 90.72 555.852 89.28 553.292 86.4C550.796 83.456 549.548 79.648 549.548 74.976C549.548 69.856 550.636 65.12 552.812 60.768C554.988 56.352 557.964 52.768 561.74 50.016C565.58 47.2 569.868 45.536 574.604 45.024C575.82 32.608 578.124 22.016 581.516 13.248C584.972 4.41599 589.484 -1.52588e-05 595.052 -1.52588e-05C597.804 -1.52588e-05 600.076 1.24799 601.868 3.74399C603.724 6.23999 604.652 10.016 604.652 15.072C604.652 22.24 602.892 30.624 599.372 40.224C595.852 49.824 591.148 59.68 585.26 69.792C585.516 73.504 586.06 76.16 586.892 77.76C587.788 79.36 588.908 80.16 590.252 80.16C591.98 80.16 593.74 79.392 595.531 77.856C597.324 76.32 599.724 73.76 602.732 70.176C603.5 69.28 604.364 68.832 605.324 68.832ZM593.996 9.40798C592.78 9.40798 591.564 11.584 590.348 15.936C589.132 20.224 588.076 25.856 587.18 32.832C586.348 39.808 585.74 47.104 585.356 54.72C592.524 39.104 596.108 26.56 596.108 17.088C596.108 14.656 595.884 12.768 595.436 11.424C595.052 10.08 594.572 9.40798 593.996 9.40798ZM566.348 81.024C567.564 81.024 568.78 80.544 569.996 79.584C571.212 78.56 572.748 76.704 574.604 74.016C573.964 70.56 573.644 66.688 573.644 62.4C573.644 60.864 573.708 58.368 573.836 54.912C570.316 56 567.372 58.368 565.004 62.016C562.7 65.6 561.548 69.6 561.548 74.016C561.548 78.688 563.148 81.024 566.348 81.024ZM643.018 68.832C643.85 68.832 644.49 69.216 644.938 69.984C645.45 70.752 645.706 71.808 645.706 73.152C645.706 75.712 645.098 77.696 643.882 79.104C641.514 81.984 638.154 84.64 633.802 87.072C629.514 89.504 624.906 90.72 619.978 90.72C613.258 90.72 608.042 88.896 604.33 85.248C600.618 81.6 598.762 76.608 598.762 70.272C598.762 65.856 599.69 61.76 601.546 57.984C603.402 54.144 605.962 51.104 609.226 48.864C612.554 46.624 616.298 45.504 620.458 45.504C624.17 45.504 627.146 46.624 629.386 48.864C631.626 51.04 632.746 54.016 632.746 57.792C632.746 62.208 631.146 66.016 627.946 69.216C624.81 72.352 619.466 74.848 611.914 76.704C613.514 79.648 616.554 81.12 621.034 81.12C623.914 81.12 627.178 80.128 630.826 78.144C634.538 76.096 637.738 73.44 640.426 70.176C641.194 69.28 642.058 68.832 643.018 68.832ZM618.826 54.912C616.458 54.912 614.442 56.288 612.778 59.04C611.178 61.792 610.378 65.12 610.378 69.024V69.216C614.154 68.32 617.13 66.976 619.306 65.184C621.482 63.392 622.57 61.312 622.57 58.944C622.57 57.728 622.218 56.768 621.514 56.064C620.874 55.296 619.978 54.912 618.826 54.912ZM676.673 58.656C678.081 58.656 679.265 59.168 680.225 60.192C681.249 61.152 681.761 62.368 681.761 63.84C681.761 64.672 681.569 65.568 681.185 66.528C680.161 68.896 678.721 70.88 676.865 72.48C675.009 74.08 672.961 74.88 670.721 74.88C668.929 74.88 667.393 74.24 666.113 72.96C664.897 71.68 664.289 69.952 664.289 67.776C664.289 66.56 664.353 65.248 664.481 63.84C664.609 62.816 664.673 62.112 664.673 61.728C664.673 61.216 664.545 60.832 664.289 60.576C664.097 60.32 663.841 60.192 663.521 60.192C662.625 60.192 661.409 61.28 659.873 63.456C658.337 65.568 656.801 68.384 655.265 71.904C653.729 75.424 652.481 79.136 651.521 83.04C650.817 86.112 650.017 88.16 649.121 89.184C648.225 90.208 646.753 90.72 644.705 90.72C642.273 90.72 640.545 89.44 639.521 86.88C638.561 84.32 638.081 80.224 638.081 74.592C638.081 66.272 639.265 58.368 641.633 50.88C642.209 49.024 643.137 47.68 644.417 46.848C645.761 45.952 647.617 45.504 649.985 45.504C651.265 45.504 652.161 45.664 652.673 45.984C653.185 46.304 653.441 46.912 653.441 47.808C653.441 48.832 652.961 51.136 652.001 54.72C651.361 57.28 650.849 59.52 650.465 61.44C650.081 63.36 649.761 65.728 649.505 68.544C651.617 63.04 653.985 58.56 656.609 55.104C659.233 51.648 661.793 49.184 664.289 47.712C666.785 46.24 669.057 45.504 671.105 45.504C672.961 45.504 674.369 46.048 675.329 47.136C676.353 48.16 676.865 49.696 676.865 51.744C676.865 52.96 676.513 55.264 675.809 58.656H676.673Z" fill="white"/>
</svg>
